<?xml version="1.0" encoding="utf-8"?>
<!-- Generator: Adobe Illustrator 19.0.1, SVG Export Plug-In . SVG Version: 6.00 Build 0)  -->
<svg version="1.1" id="Layer_1" xmlns="http://www.w3.org/2000/svg" xmlns:xlink="http://www.w3.org/1999/xlink" x="0px" y="0px"
	 viewBox="-946 523 26 36" style="enable-background:new -946 523 26 36;" xml:space="preserve">
<style type="text/css">
	.st0{fill:#FFFFFF;}
	.st1{fill:none;stroke:#FFFFFF;stroke-width:2;stroke-linecap:round;stroke-linejoin:round;stroke-miterlimit:10;}
</style>
<g>
	<g>
		<path class="st0" d="M10.2,1064.1c-3.7,0-6.7-3-6.7-6.7c0-3.7,3-6.7,6.7-6.7s6.7,3,6.7,6.7C16.9,1061.1,13.9,1064.1,10.2,1064.1z
			 M10.2,1052.7c-2.6,0-4.7,2.1-4.7,4.7s2.1,4.7,4.7,4.7s4.7-2.1,4.7-4.7S12.8,1052.7,10.2,1052.7z"/>
	</g>
	<g>
		<path class="st0" d="M26.2,1081.1h-24c-0.6,0-1-0.4-1-1v-11.3c0-0.6,0.4-1,1-1h24c0.6,0,1,0.4,1,1v11.3
			C27.2,1080.7,26.8,1081.1,26.2,1081.1z M3.2,1079.1h22v-9.3h-22V1079.1z"/>
	</g>
	<g>
		<path class="st0" d="M7,1053.8c-0.3,0-0.6-0.1-0.8-0.4l-4.8-6.7c-0.3-0.4-0.2-1.1,0.2-1.4c0.4-0.3,1.1-0.2,1.4,0.2l4.8,6.7
			c0.3,0.4,0.2,1.1-0.2,1.4C7.4,1053.7,7.2,1053.8,7,1053.8z"/>
	</g>
	<g>
		<path class="st0" d="M18.2,1069.8c-0.3,0-0.6-0.1-0.8-0.4l-4.7-6.7c-0.3-0.5-0.2-1.1,0.2-1.4s1.1-0.2,1.4,0.2l4.7,6.7
			c0.3,0.5,0.2,1.1-0.2,1.4C18.6,1069.7,18.4,1069.8,18.2,1069.8z"/>
	</g>
	<g>
		<path class="st0" d="M2.2,1064.1c-0.3,0-0.6-0.1-0.8-0.4c-0.3-0.5-0.2-1.1,0.2-1.4l3.4-2.4c0.5-0.3,1.1-0.2,1.4,0.2
			c0.3,0.5,0.2,1.1-0.2,1.4l-3.4,2.4C2.6,1064,2.4,1064.1,2.2,1064.1z"/>
	</g>
	<g>
		<path class="st0" d="M15,1055.1c-0.3,0-0.6-0.1-0.8-0.4c-0.3-0.4-0.2-1.1,0.2-1.4l11.2-8c0.4-0.3,1.1-0.2,1.4,0.2
			c0.3,0.4,0.2,1.1-0.2,1.4l-11.2,8C15.4,1055,15.2,1055.1,15,1055.1z"/>
	</g>
	<g>
		<path class="st0" d="M10.2,1058.4c-0.6,0-1-0.4-1-1s0.4-1,1-1l0,0c0.6,0,1,0.4,1,1S10.8,1058.4,10.2,1058.4z"/>
	</g>
</g>
<g>
	<rect x="-941.1" y="527" class="st1" width="0" height="0"/>
	<g>
		<path class="st0" d="M-921,543.5c-0.2,0-0.4-0.1-0.6-0.2l-13.7-10.5c-0.4-0.3-0.5-1-0.2-1.4c0.3-0.4,1-0.5,1.4-0.2l13.7,10.5
			c0.4,0.3,0.5,1,0.2,1.4C-920.4,543.3-920.7,543.5-921,543.5z"/>
	</g>
	<g>
		<path class="st0" d="M-921,559c-0.3,0-0.6-0.2-0.8-0.5l-17.2-26.4c-0.3-0.5-0.2-1.1,0.3-1.4c0.5-0.3,1.1-0.2,1.4,0.3l17.2,26.4
			c0.3,0.5,0.2,1.1-0.3,1.4C-920.6,558.9-920.8,559-921,559z"/>
	</g>
	<g>
		<path class="st0" d="M-936.5,559c-0.5,0-0.9-0.4-1-0.9l-3.4-23.1c-0.1-0.5,0.3-1.1,0.8-1.1c0.5-0.1,1.1,0.3,1.1,0.8l3.4,23.1
			c0.1,0.5-0.3,1.1-0.8,1.1C-936.4,559-936.5,559-936.5,559z"/>
	</g>
	<path class="st0" d="M-939.7,533.9c-0.2-0.1-0.5-0.1-0.5-0.1c-2.1-0.3-3.7-2.2-3.7-4.4c0-2.5,2-4.4,4.4-4.4s4.4,2,4.4,4.4
		c0,1.9-1.2,3.5-2.9,4.2l1.1,1.7c2.2-1,3.8-3.3,3.8-5.9c0-3.6-2.9-6.4-6.4-6.4c-3.6,0-6.4,2.9-6.4,6.4s2.9,6.4,6.4,6.4
		c0.2,0,0.4,0,0.6,0L-939.7,533.9z"/>
</g>
</svg>
