<?xml version="1.0" encoding="utf-8"?>
<!-- Generator: Adobe Illustrator 19.2.1, SVG Export Plug-In . SVG Version: 6.00 Build 0)  -->
<svg version="1.1" id="Layer_1" xmlns="http://www.w3.org/2000/svg" xmlns:xlink="http://www.w3.org/1999/xlink" x="0px" y="0px"
	 viewBox="0 0 26 36" style="enable-background:new 0 0 26 36;" xml:space="preserve">
<style type="text/css">
	.st0{fill:#FFFFFF;}
	.st1{fill:none;}
</style>
<g>
	<g>
		<path class="st0" d="M972.2,558.1h-24c-0.6,0-1-0.4-1-1v-34c0-0.6,0.4-1,1-1h24c0.6,0,1,0.4,1,1v34
			C973.2,557.7,972.8,558.1,972.2,558.1z M949.2,556.1h22v-32h-22V556.1z"/>
	</g>
</g>
<g>
	<g>
		<rect x="1" y="1" class="st1" width="24" height="34"/>
	</g>
	<g>
		<path class="st0" d="M13,2c-0.6,0-1-0.5-1-1s0.5-1,1-1s1,0.5,1,1S13.6,2,13,2z M14,1L14,1L14,1z M13,1L13,1L13,1z"/>
	</g>
	<g>
		<path class="st0" d="M13,26.4c-4.4,0-8.5-1-12.4-2.9c-0.5-0.2-0.7-0.8-0.5-1.3c0.2-0.5,0.8-0.7,1.3-0.5c3.6,1.8,7.5,2.7,11.6,2.7
			c4.1,0,7.9-0.9,11.6-2.7c0.5-0.2,1.1,0,1.3,0.5c0.2,0.5,0,1.1-0.5,1.3C21.5,25.4,17.4,26.4,13,26.4z"/>
	</g>
	<g>
		<path class="st0" d="M13,30.6c-0.6,0-1-0.5-1-1s0.5-1,1-1s1,0.5,1,1S13.6,30.6,13,30.6z M14,29.6L14,29.6L14,29.6z M13,29.6
			L13,29.6L13,29.6z"/>
	</g>
	<g>
		<path class="st0" d="M13,35.5c-0.3,0-0.5-0.2-0.5-0.5v-2.9c0-0.3,0.2-0.5,0.5-0.5s0.5,0.2,0.5,0.5V35C13.5,35.3,13.3,35.5,13,35.5
			z"/>
	</g>
</g>
</svg>
