<?xml version="1.0" encoding="utf-8"?>
<!-- Generator: Adobe Illustrator 19.2.1, SVG Export Plug-In . SVG Version: 6.00 Build 0)  -->
<svg version="1.1" id="Layer_1" xmlns="http://www.w3.org/2000/svg" xmlns:xlink="http://www.w3.org/1999/xlink" x="0px" y="0px"
	 viewBox="0 0 26 36" style="enable-background:new 0 0 26 36;" xml:space="preserve">
<style type="text/css">
	.st0{fill:#FFFFFF;}
</style>
<g>
	<g>
		<path class="st0" d="M956.2,541.1c-3.7,0-6.7-3-6.7-6.7s3-6.7,6.7-6.7s6.7,3,6.7,6.7S959.9,541.1,956.2,541.1z M956.2,529.7
			c-2.6,0-4.7,2.1-4.7,4.7s2.1,4.7,4.7,4.7s4.7-2.1,4.7-4.7S958.8,529.7,956.2,529.7z"/>
	</g>
	<g>
		<path class="st0" d="M972.2,558.1h-24c-0.6,0-1-0.4-1-1v-11.3c0-0.6,0.4-1,1-1h24c0.6,0,1,0.4,1,1v11.3
			C973.2,557.7,972.8,558.1,972.2,558.1z M949.2,556.1h22v-9.3h-22V556.1z"/>
	</g>
	<g>
		<path class="st0" d="M953,530.8c-0.3,0-0.6-0.1-0.8-0.4l-4.8-6.7c-0.3-0.4-0.2-1.1,0.2-1.4c0.4-0.3,1.1-0.2,1.4,0.2l4.8,6.7
			c0.3,0.4,0.2,1.1-0.2,1.4C953.4,530.7,953.2,530.8,953,530.8z"/>
	</g>
	<g>
		<path class="st0" d="M964.2,546.8c-0.3,0-0.6-0.1-0.8-0.4l-4.7-6.7c-0.3-0.5-0.2-1.1,0.2-1.4s1.1-0.2,1.4,0.2l4.7,6.7
			c0.3,0.5,0.2,1.1-0.2,1.4C964.6,546.7,964.4,546.8,964.2,546.8z"/>
	</g>
	<g>
		<path class="st0" d="M948.2,541.1c-0.3,0-0.6-0.1-0.8-0.4c-0.3-0.5-0.2-1.1,0.2-1.4l3.4-2.4c0.5-0.3,1.1-0.2,1.4,0.2
			c0.3,0.5,0.2,1.1-0.2,1.4l-3.4,2.4C948.6,541,948.4,541.1,948.2,541.1z"/>
	</g>
	<g>
		<path class="st0" d="M961,532.1c-0.3,0-0.6-0.1-0.8-0.4c-0.3-0.4-0.2-1.1,0.2-1.4l11.2-8c0.4-0.3,1.1-0.2,1.4,0.2s0.2,1.1-0.2,1.4
			l-11.2,8C961.4,532,961.2,532.1,961,532.1z"/>
	</g>
	<g>
		<path class="st0" d="M956.2,535.4c-0.6,0-1-0.4-1-1s0.4-1,1-1l0,0c0.6,0,1,0.4,1,1S956.8,535.4,956.2,535.4z"/>
	</g>
</g>
<g>
	<g>
		<path class="st0" d="M1,7.8c-0.6,0-1-0.4-1-1C0,3,3,0,6.7,0c2.6,0,5,1.5,6.1,3.9c0.2,0.5,0,1.1-0.5,1.3c-0.5,0.2-1.1,0-1.3-0.5
			C10.3,3.1,8.6,2,6.7,2C4.1,2,2,4.1,2,6.8C2,7.3,1.5,7.8,1,7.8z"/>
	</g>
	<g>
		<path class="st0" d="M24.9,31.9c-0.4,0-0.7-0.2-0.9-0.6L11,4.8c-0.2-0.5,0-1.1,0.5-1.3c0.5-0.2,1.1,0,1.3,0.5l13,26.6
			c0.2,0.5,0,1.1-0.5,1.3C25.2,31.9,25,31.9,24.9,31.9z"/>
	</g>
	<g>
		<path class="st0" d="M4.8,5.8c-0.6,0-1-0.4-1-1s0.4-1,1-1h0c0.6,0,1,0.4,1,1S5.4,5.8,4.8,5.8z"/>
	</g>
	<g>
		<path class="st0" d="M11.9,5.3c-0.2,0-0.3,0-0.5-0.1c-0.5-0.3-0.7-0.9-0.4-1.4l1.8-3.3c0.3-0.5,0.9-0.7,1.4-0.4
			c0.5,0.3,0.7,0.9,0.4,1.4l-1.8,3.3C12.6,5.1,12.3,5.3,11.9,5.3z"/>
	</g>
	<g>
		<path class="st0" d="M21.8,36c-0.6,0-1-0.4-1-1s0.4-1,1-1c1.2,0,2.2-1,2.2-2.2c0-0.2,0-0.4-0.1-0.6c-0.1-0.5,0.2-1.1,0.7-1.2
			c0.5-0.1,1.1,0.2,1.2,0.7C26,31,26,31.4,26,31.8C26,34.1,24.1,36,21.8,36z"/>
	</g>
	<g>
		<path class="st0" d="M4.2,36C1.9,36,0,34.1,0,31.8c0-0.6,0.4-1,1-1s1,0.4,1,1C2,33,3,34,4.2,34c0.6,0,1,0.4,1,1S4.8,36,4.2,36z"/>
	</g>
	<g>
		<path class="st0" d="M21.8,36H4.2c-0.6,0-1-0.4-1-1s0.4-1,1-1h17.5c0.6,0,1,0.4,1,1S22.3,36,21.8,36z"/>
	</g>
	<g>
		<path class="st0" d="M1,32.8c-0.6,0-1-0.4-1-1v-25c0-0.6,0.4-1,1-1s1,0.4,1,1v25C2,32.3,1.5,32.8,1,32.8z"/>
	</g>
</g>
</svg>
