<?xml version="1.0" encoding="utf-8"?>
<!-- Generator: Adobe Illustrator 19.2.1, SVG Export Plug-In . SVG Version: 6.00 Build 0)  -->
<svg version="1.1" id="Layer_1" xmlns="http://www.w3.org/2000/svg" xmlns:xlink="http://www.w3.org/1999/xlink" x="0px" y="0px"
	 viewBox="0 0 26 36" style="enable-background:new 0 0 26 36;" xml:space="preserve">
<style type="text/css">
	.st0{fill:#FFFFFF;}
	.st1{fill:none;}
</style>
<g>
	<g>
		<path class="st0" d="M972.2,558.1h-24c-0.6,0-1-0.4-1-1v-34c0-0.6,0.4-1,1-1h24c0.6,0,1,0.4,1,1v34
			C973.2,557.7,972.8,558.1,972.2,558.1z M949.2,556.1h22v-32h-22V556.1z"/>
	</g>
</g>
<g>
	<g>
		<rect x="0.8" y="0.5" class="st1" width="24.3" height="34.5"/>
	</g>
	<g>
		<circle class="st0" cx="13" cy="11.5" r="3.5"/>
	</g>
	<g>
		<circle class="st0" cx="13" cy="33.1" r="1.8"/>
		<path class="st0" d="M13,36c-1.6,0-2.9-1.3-2.9-2.9c0-1.6,1.3-2.9,2.9-2.9c1.6,0,2.9,1.3,2.9,2.9C15.9,34.7,14.6,36,13,36z
			 M13,32.3c-0.5,0-0.8,0.4-0.8,0.8S12.5,34,13,34c0.5,0,0.8-0.4,0.8-0.8S13.5,32.3,13,32.3z"/>
	</g>
	<g>
		<circle class="st0" cx="2.1" cy="22.1" r="1.2"/>
	</g>
	<g>
		<path class="st0" d="M13,24.6c-1.1,0-2-0.9-2-2c0-1.1,0.9-2,2-2s2,0.9,2,2C15,23.7,14.1,24.6,13,24.6z M13,22.5L13,22.5
			C13,22.6,13,22.5,13,22.5z"/>
	</g>
	<g>
		<path class="st0" d="M18.4,8c-0.6,0-1-0.5-1-1s0.5-1,1-1c0.6,0,1,0.5,1,1S19,8,18.4,8z M19.4,6.9L19.4,6.9L19.4,6.9z M18.4,6.9
			L18.4,6.9L18.4,6.9z"/>
	</g>
	<g>
		<path class="st0" d="M13,23.1c-6.4,0-11.6-5.2-11.6-11.6C1.4,5.8,5.4,1,11,0c0.3,0,0.5,0.1,0.6,0.4c0,0.3-0.1,0.5-0.4,0.6
			C6.1,1.9,2.4,6.3,2.4,11.5c0,5.8,4.8,10.6,10.6,10.6s10.6-4.8,10.6-10.6c0-5.2-3.7-9.6-8.8-10.4c-0.3,0-0.5-0.3-0.4-0.6
			C14.5,0.1,14.7,0,15,0c5.6,1,9.6,5.8,9.6,11.4C24.6,17.9,19.4,23.1,13,23.1z"/>
	</g>
	<g>
		<path class="st0" d="M13,19.1c-4.2,0-7.6-3.4-7.6-7.6S8.8,3.8,13,3.8c4.2,0,7.6,3.4,7.6,7.6S17.2,19.1,13,19.1z M13,4.8
			c-3.7,0-6.6,3-6.6,6.6s3,6.6,6.6,6.6s6.6-3,6.6-6.6S16.7,4.8,13,4.8z"/>
	</g>
	<g>
		<path class="st0" d="M13,27.2C8,27.2,3.4,25,0.4,21c-0.2-0.2-0.1-0.5,0.1-0.7c0.2-0.2,0.5-0.1,0.7,0.1c2.8,3.7,7.1,5.8,11.8,5.8
			c4.7,0,8.9-2.1,11.8-5.8c0.2-0.2,0.5-0.3,0.7-0.1c0.2,0.2,0.3,0.5,0.1,0.7C22.6,25,18,27.2,13,27.2z"/>
	</g>
	<g>
		<path class="st0" d="M13,33.7c-4.5,0-8.8-1.3-12.5-3.8c-0.2-0.2-0.3-0.5-0.1-0.7c0.2-0.2,0.5-0.3,0.7-0.1
			c3.5,2.4,7.6,3.6,11.9,3.6c4.2,0,8.3-1.3,11.8-3.6c0.2-0.2,0.5-0.1,0.7,0.1c0.2,0.2,0.1,0.5-0.1,0.7C21.7,32.3,17.5,33.7,13,33.7z
			"/>
	</g>
</g>
</svg>
