<?xml version="1.0" encoding="utf-8"?>
<!-- Generator: Adobe Illustrator 19.2.1, SVG Export Plug-In . SVG Version: 6.00 Build 0)  -->
<svg version="1.1" id="Layer_1" xmlns="http://www.w3.org/2000/svg" xmlns:xlink="http://www.w3.org/1999/xlink" x="0px" y="0px"
	 viewBox="0 0 26 36" style="enable-background:new 0 0 26 36;" xml:space="preserve">
<style type="text/css">
	.st0{fill:#FFFFFF;}
</style>
<g>
	<g>
		<path class="st0" d="M972.2,558.1h-24c-0.6,0-1-0.4-1-1v-34c0-0.6,0.4-1,1-1h24c0.6,0,1,0.4,1,1v34
			C973.2,557.7,972.8,558.1,972.2,558.1z M949.2,556.1h22v-32h-22V556.1z"/>
	</g>
</g>
<g>
	<g>
		<path class="st0" d="M10.5,10.4c-1.1,0-1.9-0.9-1.9-1.9c0-1.1,0.9-1.9,1.9-1.9c1.1,0,1.9,0.9,1.9,1.9
			C12.4,9.6,11.6,10.4,10.5,10.4z M10.5,8.4L10.5,8.4c-0.1,0.1,0,0.1,0,0.1V8.4z"/>
	</g>
	<g>
		<path class="st0" d="M15.5,23.7L13,36l-2.5-12.3c-0.3-1.4,0.6-2.7,2-3c1.4-0.3,2.7,0.6,3,2C15.6,23,15.6,23.3,15.5,23.7z"/>
	</g>
	<g>
		<path class="st0" d="M1,25.5c-0.2,0-0.4-0.1-0.6-0.2c-0.4-0.3-0.5-1-0.2-1.4l8.1-10.8c0.3-0.4,1-0.5,1.4-0.2
			c0.4,0.3,0.5,1,0.2,1.4L1.8,25.1C1.6,25.3,1.3,25.5,1,25.5z"/>
	</g>
	<g>
		<path class="st0" d="M25,28.9h-7.7c-0.6,0-1-0.4-1-1s0.4-1,1-1H25c0.6,0,1,0.4,1,1S25.6,28.9,25,28.9z"/>
	</g>
	<g>
		<path class="st0" d="M8.7,28.9H1c-0.6,0-1-0.4-1-1s0.4-1,1-1h7.7c0.6,0,1,0.4,1,1S9.3,28.9,8.7,28.9z"/>
	</g>
	<g>
		<path class="st0" d="M17.7,6.6c-0.6,0-1-0.4-1-1V1c0-0.6,0.4-1,1-1s1,0.4,1,1v4.6C18.7,6.1,18.2,6.6,17.7,6.6z"/>
	</g>
	<g>
		<path class="st0" d="M25,25.5c-0.3,0-0.6-0.1-0.8-0.4l-8.1-10.8c-0.3-0.4-0.2-1.1,0.2-1.4c0.4-0.3,1.1-0.2,1.4,0.2l8.1,10.8
			c0.3,0.4,0.2,1.1-0.2,1.4C25.4,25.4,25.2,25.5,25,25.5z"/>
	</g>
	<g>
		<g>
			<path class="st0" d="M16.2,17c-0.2-0.4-0.7-0.6-1.2-0.5l0,0c-0.6,0.2-1.3,0.4-2,0.4c-0.8,0-1.6-0.2-2.3-0.4l-1.2,1.6
				c1.1,0.5,2.2,0.8,3.5,0.8c0.6,0,1.3-0.1,1.8-0.2l3.5,6.3c0.2,0.3,0.5,0.5,0.9,0.5c0.2,0,0.3,0,0.5-0.1c0.5-0.3,0.7-0.9,0.4-1.4
				L16.2,17z"/>
		</g>
		<g>
			<path class="st0" d="M6.9,10.9c0-3.3,2.7-6.1,6.1-6.1s6.1,2.7,6.1,6.1c0,1.6-0.7,3.1-1.7,4.2l1,1.8c1.7-1.5,2.7-3.6,2.7-6
				c0-4.4-3.6-8.1-8.1-8.1s-8.1,3.6-8.1,8.1c0,2.5,1.1,4.7,2.9,6.2L9,15.4C7.7,14.3,6.9,12.7,6.9,10.9z"/>
		</g>
	</g>
</g>
</svg>
