<?xml version="1.0" encoding="utf-8"?>
<!-- Generator: Adobe Illustrator 19.0.1, SVG Export Plug-In . SVG Version: 6.00 Build 0)  -->
<svg version="1.1" id="Layer_1" xmlns="http://www.w3.org/2000/svg" xmlns:xlink="http://www.w3.org/1999/xlink" x="0px" y="0px"
	 viewBox="947.2 522.1 26 36" style="enable-background:new 947.2 522.1 26 36;" xml:space="preserve">
<style type="text/css">
	.st0{fill:#FFFFFF;}
</style>
<g>
	<g>
		<path class="st0" d="M964.3,538.6c-0.2,0-0.3,0-0.5-0.1c-0.5-0.3-0.7-0.9-0.4-1.4l7.9-14.5c0.3-0.5,0.9-0.7,1.4-0.4
			s0.7,0.9,0.4,1.4l-7.9,14.5C965,538.4,964.6,538.6,964.3,538.6z"/>
	</g>
	<g>
		<g>
			<path class="st0" d="M964.3,538.6c-0.2,0-0.3,0-0.5-0.1c-0.5-0.3-0.7-0.9-0.4-1.4l7.9-14.5c0.3-0.5,0.9-0.7,1.4-0.4
				s0.7,0.9,0.4,1.4l-7.9,14.5C965,538.4,964.6,538.6,964.3,538.6z"/>
		</g>
	</g>
	<g>
		<path class="st0" d="M968.9,535.5l-1,1.8c2,2,3.3,4.8,3.3,7.8c0,6.1-4.9,11-11,11s-11-4.9-11-11c0-3.1,1.3-5.9,3.4-7.9l-1-1.8
			c-2.7,2.4-4.5,5.9-4.5,9.8c0,7.2,5.8,13,13,13s13-5.8,13-13C973.2,541.3,971.5,537.8,968.9,535.5z"/>
	</g>
	<g>
		<path class="st0" d="M965.9,534.4l1-0.4c-2-1.2-4.3-1.9-6.8-1.9c-2.3,0-4.5,0.6-6.4,1.7c0.2,0.2,0.4,0.3,0.4,0.3l0.2,1.7
			c1.7-1.1,3.7-1.7,5.9-1.7c2.1,0,4.1,0.6,5.8,1.7L965.9,534.4z"/>
	</g>
	<g>
		<path class="st0" d="M957.3,543c-1.9,0-3.5-1.6-3.5-3.5s1.6-3.5,3.5-3.5c1.9,0,3.5,1.6,3.5,3.5S959.2,543,957.3,543z M957.3,538.1
			c-0.8,0-1.5,0.7-1.5,1.5c0,0.8,0.7,1.5,1.5,1.5c0.8,0,1.5-0.7,1.5-1.5C958.8,538.8,958.1,538.1,957.3,538.1z"/>
	</g>
	<g>
		<g>
			<path class="st0" d="M955.8,538.1c0.2,0,0.3,0,0.5-0.1c0.5-0.3,0.7-0.9,0.4-1.4l-7.6-14c-0.3-0.5-0.9-0.7-1.4-0.4
				s-0.7,0.9-0.4,1.4l7.6,14C955.1,537.9,955.4,538.1,955.8,538.1z"/>
		</g>
	</g>
</g>
</svg>
