<?xml version="1.0" encoding="utf-8"?>
<!-- Generator: Adobe Illustrator 19.2.1, SVG Export Plug-In . SVG Version: 6.00 Build 0)  -->
<svg version="1.1" id="Layer_1" xmlns="http://www.w3.org/2000/svg" xmlns:xlink="http://www.w3.org/1999/xlink" x="0px" y="0px"
	 viewBox="0 0 26 36" style="enable-background:new 0 0 26 36;" xml:space="preserve">
<style type="text/css">
	.st0{fill:#FFFFFF;}
	.st1{fill:none;}
</style>
<g>
	<g>
		<path class="st0" d="M972.2,558.1h-24c-0.6,0-1-0.4-1-1v-34c0-0.6,0.4-1,1-1h24c0.6,0,1,0.4,1,1v34
			C973.2,557.7,972.8,558.1,972.2,558.1z M949.2,556.1h22v-32h-22V556.1z"/>
	</g>
</g>
<g>
	<g>
		<rect x="1" y="1" class="st1" width="24" height="34"/>
	</g>
	<g>
		<path class="st0" d="M3,12.1c-0.6,0-1-0.4-1-1V9.7c0,0,0-0.1,0-0.1C2.7,4.1,7.5,0,13,0c5.3,0,9.9,3.8,10.9,9
			c0.1,0.5-0.3,1.1-0.8,1.2c-0.6,0.1-1.1-0.3-1.2-0.8C21.1,5.1,17.3,2,13,2C8.5,2,4.6,5.3,4,9.7v1.3C4,11.6,3.5,12.1,3,12.1z"/>
	</g>
	<g>
		<path class="st0" d="M15,24.9C15,24.9,14.9,24.9,15,24.9L6.1,24c-0.3,0-0.6-0.2-0.8-0.5l-0.4-0.9c-0.2,0.2-0.5,0.2-0.8,0.2
			c-0.3,0-0.5-0.2-0.7-0.5l-3.3-5.4C0,16.7,0,16.6,0,16.4v-4.4c0-0.4,0.2-0.7,0.6-0.9l1.9-0.9c0.3-0.1,0.7-0.1,1,0.1l7.4,4.7
			l2.4-4.2c0.3-0.5,0.8-0.6,1.3-0.4l2.4,1.2L19.6,8c0.2-0.3,0.6-0.5,1-0.4l4.6,1.1c0.4,0.1,0.8,0.5,0.8,1l0,6.9
			c0,0.2-0.1,0.5-0.3,0.7l-1.9,2.1c-0.1,0.1-0.1,0.1-0.2,0.2l-8.1,5.1C15.4,24.8,15.2,24.9,15,24.9z M6.8,22.1l7.9,0.8l7.7-4.8
			l1.6-1.7l0-5.8l-3.2-0.8L18,13.4c-0.3,0.4-0.8,0.5-1.2,0.3l-2.3-1.1L12,16.9c-0.1,0.2-0.4,0.4-0.6,0.5c-0.3,0.1-0.6,0-0.8-0.1
			l-7.8-5L2,12.6v3.5l2.5,4.2l0,0C4.8,20,5.1,20,5.4,20c0.3,0.1,0.6,0.3,0.7,0.5L6.8,22.1z"/>
	</g>
	<g>
		<path class="st0" d="M9.8,9.9c-1.7,0-3-1.3-3-3s1.3-3,3-3s3,1.3,3,3S11.4,9.9,9.8,9.9z M9.8,5.9c-0.6,0-1,0.4-1,1s0.4,1,1,1
			s1-0.4,1-1S10.3,5.9,9.8,5.9z"/>
	</g>
	<g>
		<path class="st0" d="M13,36c-0.4,0-0.8-0.2-0.9-0.6l-3-7.3c-0.2-0.5,0-1.1,0.5-1.3c0.5-0.2,1.1,0,1.3,0.5l3,7.3
			c0.2,0.5,0,1.1-0.5,1.3C13.2,36,13.1,36,13,36z"/>
	</g>
	<g>
		<path class="st0" d="M7,36c-0.1,0-0.3,0-0.4-0.1c-0.5-0.2-0.8-0.8-0.5-1.3l3-7.3c0.2-0.5,0.8-0.8,1.3-0.5c0.5,0.2,0.8,0.8,0.5,1.3
			l-3,7.3C7.7,35.8,7.4,36,7,36z"/>
	</g>
	<g>
		<path class="st0" d="M7,36c-0.4,0-0.8-0.3-0.9-0.7l-3-8.5c-0.2-0.5,0.1-1.1,0.6-1.3c0.5-0.2,1.1,0.1,1.3,0.6l3,8.5
			c0.2,0.5-0.1,1.1-0.6,1.3C7.2,36,7.1,36,7,36z"/>
	</g>
	<g>
		<path class="st0" d="M1,36c-0.1,0-0.2,0-0.3-0.1c-0.5-0.2-0.8-0.8-0.6-1.3l3-8.5c0.2-0.5,0.8-0.8,1.3-0.6c0.5,0.2,0.8,0.8,0.6,1.3
			l-3,8.5C1.8,35.7,1.4,36,1,36z"/>
	</g>
	<g>
		<path class="st0" d="M24.9,36c-0.4,0-0.8-0.3-1-0.7l-3-10.8c-0.1-0.5,0.2-1.1,0.7-1.2c0.5-0.1,1.1,0.2,1.2,0.7l3,10.8
			c0.1,0.5-0.2,1.1-0.7,1.2C25.1,36,25,36,24.9,36z"/>
	</g>
	<g>
		<path class="st0" d="M18.9,36c-0.1,0-0.2,0-0.3,0c-0.5-0.1-0.8-0.7-0.7-1.2l3-10.8c0.1-0.5,0.7-0.8,1.2-0.7
			c0.5,0.1,0.8,0.7,0.7,1.2l-3,10.8C19.8,35.7,19.4,36,18.9,36z"/>
	</g>
	<g>
		<path class="st0" d="M18.9,36c-0.4,0-0.8-0.2-0.9-0.6l-3-6.9c-0.2-0.5,0-1.1,0.5-1.3c0.5-0.2,1.1,0,1.3,0.5l3,6.9
			c0.2,0.5,0,1.1-0.5,1.3C19.2,36,19.1,36,18.9,36z"/>
	</g>
	<g>
		<path class="st0" d="M13,36c-0.1,0-0.3,0-0.4-0.1c-0.5-0.2-0.7-0.8-0.5-1.3l3-6.9c0.2-0.5,0.8-0.7,1.3-0.5
			c0.5,0.2,0.7,0.8,0.5,1.3l-3,6.9C13.7,35.8,13.3,36,13,36z"/>
	</g>
</g>
</svg>
