<?xml version="1.0" encoding="utf-8"?>
<!-- Generator: Adobe Illustrator 19.2.1, SVG Export Plug-In . SVG Version: 6.00 Build 0)  -->
<svg version="1.1" id="Layer_1" xmlns="http://www.w3.org/2000/svg" xmlns:xlink="http://www.w3.org/1999/xlink" x="0px" y="0px"
	 viewBox="0 0 26 36" style="enable-background:new 0 0 26 36;" xml:space="preserve">
<style type="text/css">
	.st0{fill:#FFFFFF;}
	.st1{fill:none;}
</style>
<g>
	<g>
		<path class="st0" d="M972.2,558.1h-24c-0.6,0-1-0.4-1-1v-34c0-0.6,0.4-1,1-1h24c0.6,0,1,0.4,1,1v34
			C973.2,557.7,972.8,558.1,972.2,558.1z M949.2,556.1h22v-32h-22V556.1z"/>
	</g>
</g>
<g>
	<g>
		<path class="st0" d="M14.4,11.6l-0.7-0.7c0.2-0.2,0.3-0.4,0.3-0.7c0-0.5-0.4-0.9-0.9-0.9c-0.5,0-0.9,0.4-0.9,0.9
			c0,0.3,0.1,0.5,0.3,0.7l-0.7,0.7c-0.4-0.4-0.6-0.9-0.6-1.4c0-1.1,0.9-1.9,1.9-1.9s1.9,0.9,1.9,1.9C14.9,10.7,14.7,11.2,14.4,11.6z
			"/>
	</g>
	<g>
		<path class="st0" d="M12.4,13.4c-0.1,0-0.3,0-0.4-0.1c-0.2-0.2-0.2-0.5,0-0.7l1.6-1.6c0.2-0.2,0.5-0.2,0.7,0s0.2,0.5,0,0.7
			l-1.6,1.6C12.6,13.3,12.5,13.4,12.4,13.4z"/>
	</g>
	<g>
		<path class="st0" d="M16.3,13.5l-0.7-0.7c0.7-0.7,1.1-1.6,1.1-2.6c0-2-1.7-3.7-3.7-3.7s-3.7,1.7-3.7,3.7c0,1,0.4,1.9,1.1,2.6
			l-0.7,0.7c-0.9-0.9-1.4-2.1-1.4-3.3c0-2.6,2.1-4.7,4.7-4.7c2.6,0,4.7,2.1,4.7,4.7C17.7,11.4,17.2,12.6,16.3,13.5z"/>
	</g>
	<g>
		<rect x="11.7" y="15.6" transform="matrix(0.7071 -0.7071 0.7071 0.7071 -7.5834 13.9088)" class="st0" width="2.7" height="1"/>
	</g>
	<g>
		<rect x="11" y="12.5" transform="matrix(0.7082 -0.706 0.706 0.7082 -6.9641 12.4056)" class="st0" width="1" height="4.2"/>
	</g>
	<g>
		<rect x="11.8" y="12.2" transform="matrix(0.7071 -0.7071 0.7071 0.7071 -5.3346 12.564)" class="st0" width="1.4" height="1"/>
	</g>
	<g>
		<rect x="7.8" y="15.5" transform="matrix(0.7071 -0.7071 0.7071 0.7071 -8.6491 11.1909)" class="st0" width="2.7" height="1"/>
	</g>
	<g>
		<path class="st0" d="M14.4,11.6l-0.7-0.7c0.2-0.2,0.3-0.4,0.3-0.7c0-0.5-0.4-0.9-0.9-0.9c-0.5,0-0.9,0.4-0.9,0.9
			c0,0.3,0.1,0.5,0.3,0.7l-0.7,0.7c-0.4-0.4-0.6-0.9-0.6-1.4c0-1.1,0.9-1.9,1.9-1.9s1.9,0.9,1.9,1.9C14.9,10.7,14.7,11.2,14.4,11.6z
			"/>
	</g>
	<g>
		<path class="st0" d="M12.4,13.4c-0.1,0-0.3,0-0.4-0.1c-0.2-0.2-0.2-0.5,0-0.7l1.6-1.6c0.2-0.2,0.5-0.2,0.7,0s0.2,0.5,0,0.7
			l-1.6,1.6C12.6,13.3,12.5,13.4,12.4,13.4z"/>
	</g>
	<g>
		<path class="st0" d="M16.3,13.5l-0.7-0.7c0.7-0.7,1.1-1.6,1.1-2.6c0-2-1.7-3.7-3.7-3.7s-3.7,1.7-3.7,3.7c0,1,0.4,1.9,1.1,2.6
			l-0.7,0.7c-0.9-0.9-1.4-2.1-1.4-3.3c0-2.6,2.1-4.7,4.7-4.7c2.6,0,4.7,2.1,4.7,4.7C17.7,11.4,17.2,12.6,16.3,13.5z"/>
	</g>
	<g>
		<rect x="11.7" y="15.6" transform="matrix(0.7071 -0.7071 0.7071 0.7071 -7.5834 13.9088)" class="st0" width="2.7" height="1"/>
	</g>
	<g>
		<rect x="11" y="12.5" transform="matrix(0.7082 -0.706 0.706 0.7082 -6.9641 12.4056)" class="st0" width="1" height="4.2"/>
	</g>
	<g>
		<rect x="11.8" y="12.2" transform="matrix(0.7071 -0.7071 0.7071 0.7071 -5.3346 12.564)" class="st0" width="1.4" height="1"/>
	</g>
	<g>
		<rect x="7.8" y="15.5" transform="matrix(0.7071 -0.7071 0.7071 0.7071 -8.6491 11.1909)" class="st0" width="2.7" height="1"/>
	</g>
	<g>
		<path class="st0" d="M5.2,19.9c-1.1,0-1.9-0.9-1.9-1.9c0-1.1,0.9-1.9,1.9-1.9c0.5,0,1,0.2,1.4,0.6l-0.7,0.7
			c-0.2-0.2-0.4-0.3-0.7-0.3c-0.5,0-0.9,0.4-0.9,0.9c0,0.5,0.4,0.9,0.9,0.9c0.3,0,0.5-0.1,0.7-0.3l0.7,0.7
			C6.2,19.7,5.7,19.9,5.2,19.9z"/>
	</g>
	<g>
		<path class="st0" d="M7.9,19.1c-0.1,0-0.3,0-0.4-0.1l-1.6-1.6c-0.2-0.2-0.2-0.5,0-0.7s0.5-0.2,0.7,0l1.6,1.6
			c0.2,0.2,0.2,0.5,0,0.7C8.1,19.1,8,19.1,7.9,19.1z"/>
	</g>
	<g>
		<path class="st0" d="M5.2,22.7c-2.6,0-4.7-2.1-4.7-4.7s2.1-4.7,4.7-4.7c1.3,0,2.4,0.5,3.3,1.4l-0.7,0.7c-0.7-0.7-1.6-1.1-2.6-1.1
			c-2,0-3.7,1.7-3.7,3.7c0,2,1.7,3.7,3.7,3.7c1,0,1.9-0.4,2.6-1.1l0.7,0.7C7.6,22.2,6.4,22.7,5.2,22.7z"/>
	</g>
	<g>
		<rect x="10.6" y="16.7" transform="matrix(0.7071 -0.7071 0.7071 0.7071 -9.4783 13.1265)" class="st0" width="1" height="2.7"/>
	</g>
	<g>
		<rect x="7.5" y="19" transform="matrix(0.7086 -0.7056 0.7056 0.7086 -10.9381 12.4681)" class="st0" width="4.2" height="1"/>
	</g>
	<g>
		<rect x="7.2" y="17.8" transform="matrix(0.7069 -0.7073 0.7073 0.7069 -10.8252 10.8821)" class="st0" width="1" height="1.4"/>
	</g>
	<g>
		<rect x="10.5" y="20.5" transform="matrix(0.707 -0.7072 0.7072 0.707 -12.1973 14.1952)" class="st0" width="1" height="2.7"/>
	</g>
	<g>
		<path class="st0" d="M5.2,19.9c-1.1,0-1.9-0.9-1.9-1.9c0-1.1,0.9-1.9,1.9-1.9c0.5,0,1,0.2,1.4,0.6l-0.7,0.7
			c-0.2-0.2-0.4-0.3-0.7-0.3c-0.5,0-0.9,0.4-0.9,0.9c0,0.5,0.4,0.9,0.9,0.9c0.3,0,0.5-0.1,0.7-0.3l0.7,0.7
			C6.2,19.7,5.7,19.9,5.2,19.9z"/>
	</g>
	<g>
		<path class="st0" d="M7.9,19.1c-0.1,0-0.3,0-0.4-0.1l-1.6-1.6c-0.2-0.2-0.2-0.5,0-0.7s0.5-0.2,0.7,0l1.6,1.6
			c0.2,0.2,0.2,0.5,0,0.7C8.1,19.1,8,19.1,7.9,19.1z"/>
	</g>
	<g>
		<path class="st0" d="M5.2,22.7c-2.6,0-4.7-2.1-4.7-4.7s2.1-4.7,4.7-4.7c1.3,0,2.4,0.5,3.3,1.4l-0.7,0.7c-0.7-0.7-1.6-1.1-2.6-1.1
			c-2,0-3.7,1.7-3.7,3.7c0,2,1.7,3.7,3.7,3.7c1,0,1.9-0.4,2.6-1.1l0.7,0.7C7.6,22.2,6.4,22.7,5.2,22.7z"/>
	</g>
	<g>
		<rect x="10.6" y="16.7" transform="matrix(0.7071 -0.7071 0.7071 0.7071 -9.4783 13.1265)" class="st0" width="1" height="2.7"/>
	</g>
	<g>
		<rect x="7.5" y="19" transform="matrix(0.7086 -0.7056 0.7056 0.7086 -10.9381 12.4681)" class="st0" width="4.2" height="1"/>
	</g>
	<g>
		<rect x="7.2" y="17.8" transform="matrix(0.7069 -0.7073 0.7073 0.7069 -10.8252 10.8821)" class="st0" width="1" height="1.4"/>
	</g>
	<g>
		<rect x="10.5" y="20.5" transform="matrix(0.707 -0.7072 0.7072 0.707 -12.1973 14.1952)" class="st0" width="1" height="2.7"/>
	</g>
	<g>
		<path class="st0" d="M13,27.8c-1.1,0-1.9-0.9-1.9-1.9c0-0.5,0.2-1,0.6-1.4l0.7,0.7c-0.2,0.2-0.3,0.4-0.3,0.7
			c0,0.5,0.4,0.9,0.9,0.9c0.5,0,0.9-0.4,0.9-0.9c0-0.3-0.1-0.5-0.3-0.7l0.7-0.7c0.4,0.4,0.6,0.9,0.6,1.4
			C14.9,26.9,14.1,27.8,13,27.8z"/>
	</g>
	<g>
		<path class="st0" d="M12,25.3c-0.1,0-0.3,0-0.4-0.1c-0.2-0.2-0.2-0.5,0-0.7l1.6-1.6c0.2-0.2,0.5-0.2,0.7,0s0.2,0.5,0,0.7l-1.6,1.6
			C12.2,25.2,12.1,25.3,12,25.3z"/>
	</g>
	<g>
		<path class="st0" d="M13,30.5c-2.6,0-4.7-2.1-4.7-4.7c0-1.3,0.5-2.4,1.4-3.3l0.7,0.7c-0.7,0.7-1.1,1.6-1.1,2.6
			c0,2,1.7,3.7,3.7,3.7s3.7-1.7,3.7-3.7c0-1-0.4-1.9-1.1-2.6l0.7-0.7c0.9,0.9,1.4,2.1,1.4,3.3C17.7,28.4,15.6,30.5,13,30.5z"/>
	</g>
	<g>
		<rect x="11.7" y="19.4" transform="matrix(0.7071 -0.7071 0.7071 0.7071 -10.2609 15.0216)" class="st0" width="2.7" height="1"/>
	</g>
	<g>
		<rect x="14" y="19.3" transform="matrix(0.7082 -0.706 0.706 0.7082 -10.8687 16.4561)" class="st0" width="1" height="4.2"/>
	</g>
	<g>
		<rect x="12.8" y="22.8" transform="matrix(0.7071 -0.7071 0.7071 0.7071 -12.5096 16.3666)" class="st0" width="1.4" height="1"/>
	</g>
	<g>
		<rect x="15.5" y="19.5" transform="matrix(0.7071 -0.7071 0.7071 0.7071 -9.1948 17.7394)" class="st0" width="2.7" height="1"/>
	</g>
	<g>
		<rect x="1" y="1" transform="matrix(-1 8.973654e-011 -8.973654e-011 -1 26 36.005)" class="st1" width="24" height="34"/>
	</g>
	<g>
		<path class="st0" d="M13,27.8c-1.1,0-1.9-0.9-1.9-1.9c0-0.5,0.2-1,0.6-1.4l0.7,0.7c-0.2,0.2-0.3,0.4-0.3,0.7
			c0,0.5,0.4,0.9,0.9,0.9c0.5,0,0.9-0.4,0.9-0.9c0-0.3-0.1-0.5-0.3-0.7l0.7-0.7c0.4,0.4,0.6,0.9,0.6,1.4
			C14.9,26.9,14.1,27.8,13,27.8z"/>
	</g>
	<g>
		<path class="st0" d="M12,25.3c-0.1,0-0.3,0-0.4-0.1c-0.2-0.2-0.2-0.5,0-0.7l1.6-1.6c0.2-0.2,0.5-0.2,0.7,0s0.2,0.5,0,0.7l-1.6,1.6
			C12.2,25.2,12.1,25.3,12,25.3z"/>
	</g>
	<g>
		<path class="st0" d="M13,30.5c-2.6,0-4.7-2.1-4.7-4.7c0-1.3,0.5-2.4,1.4-3.3l0.7,0.7c-0.7,0.7-1.1,1.6-1.1,2.6
			c0,2,1.7,3.7,3.7,3.7s3.7-1.7,3.7-3.7c0-1-0.4-1.9-1.1-2.6l0.7-0.7c0.9,0.9,1.4,2.1,1.4,3.3C17.7,28.4,15.6,30.5,13,30.5z"/>
	</g>
	<g>
		<rect x="11.7" y="19.4" transform="matrix(0.7071 -0.7071 0.7071 0.7071 -10.2609 15.0216)" class="st0" width="2.7" height="1"/>
	</g>
	<g>
		<rect x="14" y="19.3" transform="matrix(0.7082 -0.706 0.706 0.7082 -10.8687 16.4561)" class="st0" width="1" height="4.2"/>
	</g>
	<g>
		<rect x="12.8" y="22.8" transform="matrix(0.7071 -0.7071 0.7071 0.7071 -12.5096 16.3666)" class="st0" width="1.4" height="1"/>
	</g>
	<g>
		<rect x="15.5" y="19.5" transform="matrix(0.7071 -0.7071 0.7071 0.7071 -9.1948 17.7394)" class="st0" width="2.7" height="1"/>
	</g>
	<g>
		<path class="st0" d="M20.8,19.9c-0.5,0-1-0.2-1.4-0.6l0.7-0.7c0.2,0.2,0.4,0.3,0.7,0.3c0.5,0,0.9-0.4,0.9-0.9
			c0-0.5-0.4-0.9-0.9-0.9c-0.3,0-0.5,0.1-0.7,0.3l-0.7-0.7c0.4-0.4,0.9-0.6,1.4-0.6c1.1,0,1.9,0.9,1.9,1.9
			C22.7,19.1,21.9,19.9,20.8,19.9z"/>
	</g>
	<g>
		<path class="st0" d="M19.8,19.5c-0.1,0-0.3,0-0.4-0.1l-1.6-1.6c-0.2-0.2-0.2-0.5,0-0.7s0.5-0.2,0.7,0l1.6,1.6
			c0.2,0.2,0.2,0.5,0,0.7C20,19.5,19.9,19.5,19.8,19.5z"/>
	</g>
	<g>
		<path class="st0" d="M20.8,22.7c-1.3,0-2.4-0.5-3.3-1.4l0.7-0.7c0.7,0.7,1.6,1.1,2.6,1.1c2,0,3.7-1.7,3.7-3.7c0-2-1.7-3.7-3.7-3.7
			c-1,0-1.9,0.4-2.6,1.1l-0.7-0.7c0.9-0.9,2.1-1.4,3.3-1.4c2.6,0,4.7,2.1,4.7,4.7S23.4,22.7,20.8,22.7z"/>
	</g>
	<g>
		<rect x="14.4" y="16.7" transform="matrix(0.7072 -0.707 0.707 0.7072 -8.3654 15.8008)" class="st0" width="1" height="2.7"/>
	</g>
	<g>
		<rect x="14.3" y="16" transform="matrix(0.7076 -0.7066 0.7066 0.7076 -6.8914 16.4036)" class="st0" width="4.2" height="1"/>
	</g>
	<g>
		<rect x="17.8" y="16.8" transform="matrix(0.7073 -0.7069 0.7069 0.7073 -7.0209 18.0466)" class="st0" width="1" height="1.4"/>
	</g>
	<g>
		<rect x="14.5" y="12.8" transform="matrix(0.7071 -0.7071 0.7071 0.7071 -5.6477 14.7383)" class="st0" width="1" height="2.7"/>
	</g>
	<g>
		<path class="st0" d="M20.8,19.9c-0.5,0-1-0.2-1.4-0.6l0.7-0.7c0.2,0.2,0.4,0.3,0.7,0.3c0.5,0,0.9-0.4,0.9-0.9
			c0-0.5-0.4-0.9-0.9-0.9c-0.3,0-0.5,0.1-0.7,0.3l-0.7-0.7c0.4-0.4,0.9-0.6,1.4-0.6c1.1,0,1.9,0.9,1.9,1.9
			C22.7,19.1,21.9,19.9,20.8,19.9z"/>
	</g>
	<g>
		<path class="st0" d="M19.8,19.5c-0.1,0-0.3,0-0.4-0.1l-1.6-1.6c-0.2-0.2-0.2-0.5,0-0.7s0.5-0.2,0.7,0l1.6,1.6
			c0.2,0.2,0.2,0.5,0,0.7C20,19.5,19.9,19.5,19.8,19.5z"/>
	</g>
	<g>
		<path class="st0" d="M20.8,22.7c-1.3,0-2.4-0.5-3.3-1.4l0.7-0.7c0.7,0.7,1.6,1.1,2.6,1.1c2,0,3.7-1.7,3.7-3.7c0-2-1.7-3.7-3.7-3.7
			c-1,0-1.9,0.4-2.6,1.1l-0.7-0.7c0.9-0.9,2.1-1.4,3.3-1.4c2.6,0,4.7,2.1,4.7,4.7S23.4,22.7,20.8,22.7z"/>
	</g>
	<g>
		<rect x="14.4" y="16.7" transform="matrix(0.7072 -0.707 0.707 0.7072 -8.3654 15.8008)" class="st0" width="1" height="2.7"/>
	</g>
	<g>
		<rect x="14.3" y="16" transform="matrix(0.7076 -0.7066 0.7066 0.7076 -6.8914 16.4036)" class="st0" width="4.2" height="1"/>
	</g>
	<g>
		<rect x="17.8" y="16.8" transform="matrix(0.7073 -0.7069 0.7069 0.7073 -7.0209 18.0466)" class="st0" width="1" height="1.4"/>
	</g>
	<g>
		<rect x="14.5" y="12.8" transform="matrix(0.7071 -0.7071 0.7071 0.7071 -5.6477 14.7383)" class="st0" width="1" height="2.7"/>
	</g>
	<g>
		<path class="st0" d="M23,12c-0.6,0-1-0.4-1-1c0-5-4-9-9-9s-9,4-9,9c0,0.6-0.4,1-1,1s-1-0.4-1-1C2,4.9,6.9,0,13,0
			c6.1,0,11,4.9,11,11C24,11.6,23.6,12,23,12z"/>
	</g>
	<g>
		<path class="st0" d="M13,36C6.9,36,2,31.1,2,25c0-0.6,0.4-1,1-1s1,0.4,1,1c0,5,4,9,9,9s9-4,9-9c0-0.6,0.4-1,1-1s1,0.4,1,1
			C24,31.1,19.1,36,13,36z"/>
	</g>
	<g>
		<path class="st0" d="M1,2C0.4,2,0,1.6,0,1s0.5-1,1-1s1,0.5,1,1S1.6,2,1,2z M2,1L2,1L2,1z M1,1L1,1L1,1z"/>
	</g>
	<g>
		<path class="st0" d="M25,2c-0.6,0-1-0.5-1-1s0.5-1,1-1s1,0.5,1,1S25.6,2,25,2z M26,1L26,1L26,1z M25,1L25,1L25,1z"/>
	</g>
	<g>
		<path class="st0" d="M1,36c-0.6,0-1-0.5-1-1s0.5-1,1-1s1,0.5,1,1S1.6,36,1,36z M2,35L2,35L2,35z M1,35L1,35L1,35z"/>
	</g>
	<g>
		<path class="st0" d="M25,36c-0.6,0-1-0.5-1-1s0.5-1,1-1s1,0.5,1,1S25.6,36,25,36z M26,35L26,35L26,35z M25,35L25,35L25,35z"/>
	</g>
</g>
</svg>
