<?xml version="1.0" encoding="utf-8"?>
<!-- Generator: Adobe Illustrator 19.2.1, SVG Export Plug-In . SVG Version: 6.00 Build 0)  -->
<svg version="1.1" id="Layer_1" xmlns="http://www.w3.org/2000/svg" xmlns:xlink="http://www.w3.org/1999/xlink" x="0px" y="0px"
	 viewBox="0 0 26 36" style="enable-background:new 0 0 26 36;" xml:space="preserve">
<style type="text/css">
	.st0{fill:#FFFFFF;}
	.st1{fill:none;}
</style>
<g>
	<g>
		<path class="st0" d="M972.2,558.1h-24c-0.6,0-1-0.4-1-1v-34c0-0.6,0.4-1,1-1h24c0.6,0,1,0.4,1,1v34
			C973.2,557.7,972.8,558.1,972.2,558.1z M949.2,556.1h22v-32h-22V556.1z"/>
	</g>
</g>
<g>
	<g>
		<rect x="1" y="1" class="st1" width="24" height="34"/>
	</g>
	<g>
		<path class="st0" d="M25,26H1c-0.6,0-1-0.4-1-1V1c0-0.6,0.4-1,1-1h24c0.6,0,1,0.4,1,1v24C26,25.6,25.6,26,25,26z M2,24h22V2H2V24z
			"/>
	</g>
	<g>
		<path class="st0" d="M16,36H10c-0.6,0-1-0.4-1-1v-5.9c0-0.6,0.4-1,1-1H16c0.6,0,1,0.4,1,1V35C17,35.6,16.5,36,16,36z M11,34H15
			v-3.9H11V34z"/>
	</g>
	<g>
		<path class="st0" d="M13,30.1c-0.6,0-1-0.4-1-1V13c0-0.6,0.4-1,1-1s1,0.4,1,1v16.1C14,29.7,13.6,30.1,13,30.1z"/>
	</g>
</g>
</svg>
