<?xml version="1.0" encoding="utf-8"?>
<!-- Generator: Adobe Illustrator 19.0.1, SVG Export Plug-In . SVG Version: 6.00 Build 0)  -->
<svg version="1.1" id="Layer_1" xmlns="http://www.w3.org/2000/svg" xmlns:xlink="http://www.w3.org/1999/xlink" x="0px" y="0px"
	 viewBox="947.2 522.1 26 36" style="enable-background:new 947.2 522.1 26 36;" xml:space="preserve">
<style type="text/css">
	.st0{fill:#FFFFFF;}
</style>
<g>
	<path class="st0" d="M947.2,532.1v26h26v-26H947.2z M971.2,540.1h-10v-6h10V540.1z M961.2,542.1h10v6h-10V542.1z M959.2,548.1h-10
		v-6h10V548.1z M959.2,534.1v6h-10v-6H959.2z M949.2,550.1h10v6h-10V550.1z M961.2,556.1v-6h10v6H961.2z"/>
	<g>
		<g>
			<rect x="947.2" y="522.1" class="st0" width="2" height="8"/>
		</g>
	</g>
	<g>
		<g>
			<rect x="953.2" y="522.1" class="st0" width="2" height="4"/>
		</g>
	</g>
	<g>
		<g>
			<rect x="959.2" y="522.1" class="st0" width="2" height="8"/>
		</g>
	</g>
	<g>
		<g>
			<rect x="971.2" y="522.1" class="st0" width="2" height="8"/>
		</g>
	</g>
	<g>
		<g>
			<rect x="965.2" y="522.1" class="st0" width="2" height="4"/>
		</g>
	</g>
</g>
</svg>
