<?xml version="1.0" encoding="utf-8"?>
<!-- Generator: Adobe Illustrator 19.2.1, SVG Export Plug-In . SVG Version: 6.00 Build 0)  -->
<svg version="1.1" id="Layer_1" xmlns="http://www.w3.org/2000/svg" xmlns:xlink="http://www.w3.org/1999/xlink" x="0px" y="0px"
	 viewBox="0 0 26 36" style="enable-background:new 0 0 26 36;" xml:space="preserve">
<style type="text/css">
	.st0{fill:#FFFFFF;}
</style>
<g>
	<g>
		<path class="st0" d="M956.2,541.1c-3.7,0-6.7-3-6.7-6.7s3-6.7,6.7-6.7s6.7,3,6.7,6.7S959.9,541.1,956.2,541.1z M956.2,529.7
			c-2.6,0-4.7,2.1-4.7,4.7s2.1,4.7,4.7,4.7s4.7-2.1,4.7-4.7S958.8,529.7,956.2,529.7z"/>
	</g>
	<g>
		<path class="st0" d="M972.2,558.1h-24c-0.6,0-1-0.4-1-1v-11.3c0-0.6,0.4-1,1-1h24c0.6,0,1,0.4,1,1v11.3
			C973.2,557.7,972.8,558.1,972.2,558.1z M949.2,556.1h22v-9.3h-22V556.1z"/>
	</g>
	<g>
		<path class="st0" d="M953,530.8c-0.3,0-0.6-0.1-0.8-0.4l-4.8-6.7c-0.3-0.4-0.2-1.1,0.2-1.4c0.4-0.3,1.1-0.2,1.4,0.2l4.8,6.7
			c0.3,0.4,0.2,1.1-0.2,1.4C953.4,530.7,953.2,530.8,953,530.8z"/>
	</g>
	<g>
		<path class="st0" d="M964.2,546.8c-0.3,0-0.6-0.1-0.8-0.4l-4.7-6.7c-0.3-0.5-0.2-1.1,0.2-1.4s1.1-0.2,1.4,0.2l4.7,6.7
			c0.3,0.5,0.2,1.1-0.2,1.4C964.6,546.7,964.4,546.8,964.2,546.8z"/>
	</g>
	<g>
		<path class="st0" d="M948.2,541.1c-0.3,0-0.6-0.1-0.8-0.4c-0.3-0.5-0.2-1.1,0.2-1.4l3.4-2.4c0.5-0.3,1.1-0.2,1.4,0.2
			c0.3,0.5,0.2,1.1-0.2,1.4l-3.4,2.4C948.6,541,948.4,541.1,948.2,541.1z"/>
	</g>
	<g>
		<path class="st0" d="M961,532.1c-0.3,0-0.6-0.1-0.8-0.4c-0.3-0.4-0.2-1.1,0.2-1.4l11.2-8c0.4-0.3,1.1-0.2,1.4,0.2s0.2,1.1-0.2,1.4
			l-11.2,8C961.4,532,961.2,532.1,961,532.1z"/>
	</g>
	<g>
		<path class="st0" d="M956.2,535.4c-0.6,0-1-0.4-1-1s0.4-1,1-1l0,0c0.6,0,1,0.4,1,1S956.8,535.4,956.2,535.4z"/>
	</g>
</g>
<g>
	<g>
		<path class="st0" d="M17.9,36c-4.4,0-8.1-3.6-8.1-8.1c0-0.9,0.2-1.9,0.5-2.7c0.2-0.5,0.8-0.8,1.3-0.6c0.5,0.2,0.8,0.8,0.6,1.3
			c-0.2,0.7-0.4,1.3-0.4,2.1c0,3.3,2.7,6.1,6.1,6.1s6.1-2.7,6.1-6.1c0-3.1-2.4-5.8-5.5-6c-0.6,0-1-0.5-0.9-1.1c0-0.6,0.5-1,1.1-0.9
			c4.1,0.4,7.4,3.9,7.4,8C26,32.4,22.4,36,17.9,36z"/>
	</g>
	<g>
		<path class="st0" d="M15.9,29.2c-2.4,0-4.4-2-4.4-4.4s2-4.4,4.4-4.4s4.4,2,4.4,4.4S18.3,29.2,15.9,29.2z M15.9,22.4
			c-1.3,0-2.4,1.1-2.4,2.4s1.1,2.4,2.4,2.4s2.4-1.1,2.4-2.4S17.2,22.4,15.9,22.4z"/>
	</g>
	<g>
		<path class="st0" d="M12.1,19.6c-0.3,0-0.7-0.2-0.8-0.5L0.2,1.5C-0.1,1.1,0,0.4,0.5,0.2C0.9-0.1,1.6,0,1.8,0.5l11.1,17.6
			c0.3,0.5,0.2,1.1-0.3,1.4C12.4,19.5,12.2,19.6,12.1,19.6z"/>
	</g>
	<g>
		<path class="st0" d="M15.9,25.8c-0.3,0-0.7-0.2-0.8-0.5l-1.8-2.8c-0.3-0.5-0.2-1.1,0.3-1.4c0.5-0.3,1.1-0.2,1.4,0.3l1.8,2.8
			c0.3,0.5,0.2,1.1-0.3,1.4C16.3,25.7,16.1,25.8,15.9,25.8z"/>
	</g>
	<g>
		<path class="st0" d="M19.2,25.2c-0.5,0-0.9-0.3-1-0.8L13.4,1.2c-0.1-0.5,0.2-1.1,0.8-1.2c0.5-0.1,1.1,0.2,1.2,0.8L20.2,24
			c0.1,0.5-0.2,1.1-0.8,1.2C19.4,25.2,19.3,25.2,19.2,25.2z"/>
	</g>
	<g>
		<path class="st0" d="M13.8,28.4c-0.2,0-0.4-0.1-0.6-0.2L0.4,18.8c-0.4-0.3-0.5-1-0.2-1.4c0.3-0.4,1-0.5,1.4-0.2l12.8,9.4
			c0.4,0.3,0.5,1,0.2,1.4C14.4,28.3,14.1,28.4,13.8,28.4z"/>
	</g>
</g>
</svg>
