<?xml version="1.0" encoding="utf-8"?>
<!-- Generator: Adobe Illustrator 19.2.1, SVG Export Plug-In . SVG Version: 6.00 Build 0)  -->
<svg version="1.1" id="Layer_1" xmlns="http://www.w3.org/2000/svg" xmlns:xlink="http://www.w3.org/1999/xlink" x="0px" y="0px"
	 viewBox="0 0 26 36" style="enable-background:new 0 0 26 36;" xml:space="preserve">
<style type="text/css">
	.st0{fill:#FFFFFF;}
	.st1{fill:none;}
</style>
<g>
	<g>
		<path class="st0" d="M972.2,558.1h-24c-0.6,0-1-0.4-1-1v-34c0-0.6,0.4-1,1-1h24c0.6,0,1,0.4,1,1v34
			C973.2,557.7,972.8,558.1,972.2,558.1z M949.2,556.1h22v-32h-22V556.1z"/>
	</g>
</g>
<g>
	<g>
		<rect x="1" y="1" class="st1" width="24" height="34"/>
	</g>
	<g>
		<path class="st0" d="M2.9,5.8C1.3,5.8,0,4.5,0,2.9S1.3,0,2.9,0s2.9,1.3,2.9,2.9S4.5,5.8,2.9,5.8z M2.9,2C2.4,2,2,2.4,2,2.9
			c0,0.5,0.4,0.9,0.9,0.9c0.5,0,0.9-0.4,0.9-0.9C3.8,2.4,3.4,2,2.9,2z"/>
	</g>
	<g>
		<path class="st0" d="M9.2,36C4.1,36,0,31.9,0,26.8s4.1-9.2,9.2-9.2c5.1,0,9.2,4.1,9.2,9.2S14.3,36,9.2,36z M9.2,19.6
			c-4,0-7.2,3.2-7.2,7.2S5.2,34,9.2,34s7.2-3.2,7.2-7.2S13.2,19.6,9.2,19.6z"/>
	</g>
	<g>
		<path class="st0" d="M15.8,21.9l-1.4-1.4c7.3-7.5,10.7-13.4,9.2-16.1C22.8,2.8,19.2,0.6,5,3.5l-0.4-2c12-2.4,18.8-1.8,20.8,1.9
			C27.4,7.1,24.2,13.3,15.8,21.9z"/>
	</g>
	<g>
		<path class="st0" d="M10.5,28.7c-2.1,0-3.8-1.7-3.8-3.8s1.7-3.8,3.8-3.8s3.8,1.7,3.8,3.8S12.7,28.7,10.5,28.7z M10.5,23.1
			c-1,0-1.8,0.8-1.8,1.8s0.8,1.8,1.8,1.8c1,0,1.8-0.8,1.8-1.8S11.6,23.1,10.5,23.1z"/>
	</g>
</g>
</svg>
