<?xml version="1.0" encoding="utf-8"?>
<!-- Generator: Adobe Illustrator 19.2.1, SVG Export Plug-In . SVG Version: 6.00 Build 0)  -->
<svg version="1.1" id="Layer_1" xmlns="http://www.w3.org/2000/svg" xmlns:xlink="http://www.w3.org/1999/xlink" x="0px" y="0px"
	 viewBox="0 0 26 36" style="enable-background:new 0 0 26 36;" xml:space="preserve">
<style type="text/css">
	.st0{fill:#FFFFFF;}
</style>
<g>
	<g>
		<path class="st0" d="M956.2,541.1c-3.7,0-6.7-3-6.7-6.7s3-6.7,6.7-6.7s6.7,3,6.7,6.7S959.9,541.1,956.2,541.1z M956.2,529.7
			c-2.6,0-4.7,2.1-4.7,4.7s2.1,4.7,4.7,4.7s4.7-2.1,4.7-4.7S958.8,529.7,956.2,529.7z"/>
	</g>
	<g>
		<path class="st0" d="M972.2,558.1h-24c-0.6,0-1-0.4-1-1v-11.3c0-0.6,0.4-1,1-1h24c0.6,0,1,0.4,1,1v11.3
			C973.2,557.7,972.8,558.1,972.2,558.1z M949.2,556.1h22v-9.3h-22V556.1z"/>
	</g>
	<g>
		<path class="st0" d="M953,530.8c-0.3,0-0.6-0.1-0.8-0.4l-4.8-6.7c-0.3-0.4-0.2-1.1,0.2-1.4c0.4-0.3,1.1-0.2,1.4,0.2l4.8,6.7
			c0.3,0.4,0.2,1.1-0.2,1.4C953.4,530.7,953.2,530.8,953,530.8z"/>
	</g>
	<g>
		<path class="st0" d="M964.2,546.8c-0.3,0-0.6-0.1-0.8-0.4l-4.7-6.7c-0.3-0.5-0.2-1.1,0.2-1.4s1.1-0.2,1.4,0.2l4.7,6.7
			c0.3,0.5,0.2,1.1-0.2,1.4C964.6,546.7,964.4,546.8,964.2,546.8z"/>
	</g>
	<g>
		<path class="st0" d="M948.2,541.1c-0.3,0-0.6-0.1-0.8-0.4c-0.3-0.5-0.2-1.1,0.2-1.4l3.4-2.4c0.5-0.3,1.1-0.2,1.4,0.2
			c0.3,0.5,0.2,1.1-0.2,1.4l-3.4,2.4C948.6,541,948.4,541.1,948.2,541.1z"/>
	</g>
	<g>
		<path class="st0" d="M961,532.1c-0.3,0-0.6-0.1-0.8-0.4c-0.3-0.4-0.2-1.1,0.2-1.4l11.2-8c0.4-0.3,1.1-0.2,1.4,0.2s0.2,1.1-0.2,1.4
			l-11.2,8C961.4,532,961.2,532.1,961,532.1z"/>
	</g>
	<g>
		<path class="st0" d="M956.2,535.4c-0.6,0-1-0.4-1-1s0.4-1,1-1l0,0c0.6,0,1,0.4,1,1S956.8,535.4,956.2,535.4z"/>
	</g>
</g>
<g>
	<g>
		<path class="st0" d="M13,36C5.8,36,0,30.2,0,23c0-4.6,2.3-8.7,6.3-11.1c0.5-0.3,1.1-0.1,1.4,0.3c0.3,0.5,0.1,1.1-0.3,1.4
			C4,15.6,2,19.1,2,23c0,6.1,4.9,11,11,11s11-4.9,11-11c0-3.9-2-7.4-5.3-9.4c-0.5-0.3-0.6-0.9-0.3-1.4c0.3-0.5,0.9-0.6,1.4-0.3
			C23.7,14.3,26,18.4,26,23C26,30.2,20.2,36,13,36z"/>
	</g>
	<g>
		<path class="st0" d="M25,24c-0.3,0-0.5-0.1-0.7-0.3c-2.2-2.2-5-3.7-8.1-4.4c-0.5-0.1-0.9-0.6-0.8-1.2c0.1-0.5,0.6-0.9,1.2-0.8
			c3.4,0.7,6.6,2.4,9.1,4.9c0.4,0.4,0.4,1,0,1.4C25.5,23.9,25.3,24,25,24z"/>
	</g>
	<g>
		<path class="st0" d="M1,24c-0.3,0-0.5-0.1-0.7-0.3c-0.4-0.4-0.4-1,0-1.4c2.5-2.5,5.6-4.2,9.1-4.9c0.5-0.1,1.1,0.2,1.2,0.8
			c0.1,0.5-0.2,1.1-0.8,1.2c-3.1,0.6-5.8,2.1-8.1,4.3C1.5,23.9,1.3,24,1,24z"/>
	</g>
	<g>
		<path class="st0" d="M13,12.3c-0.6,0-1-0.4-1-1V1c0-0.6,0.4-1,1-1s1,0.4,1,1v10.3C14,11.9,13.6,12.3,13,12.3z"/>
	</g>
	<g>
		<path class="st0" d="M13,19c-0.6,0-1-0.4-1-1v-3.4c0-0.6,0.4-1,1-1s1,0.4,1,1V18C14,18.6,13.6,19,13,19z"/>
	</g>
	<g>
		<path class="st0" d="M13,22.4c-2.4,0-4.4-2-4.4-4.4s2-4.4,4.4-4.4s4.4,2,4.4,4.4S15.4,22.4,13,22.4z M13,15.6
			c-1.3,0-2.4,1.1-2.4,2.4s1.1,2.4,2.4,2.4s2.4-1.1,2.4-2.4S14.3,15.6,13,15.6z"/>
	</g>
	<g>
		<path class="st0" d="M16.4,19.4c-0.1,0-0.3,0-0.4-0.1c-0.5-0.2-0.7-0.8-0.5-1.3l8.6-17.4c0.2-0.5,0.8-0.7,1.3-0.5
			c0.5,0.2,0.7,0.8,0.5,1.3l-8.6,17.4C17.1,19.2,16.8,19.4,16.4,19.4z"/>
	</g>
	<g>
		<path class="st0" d="M9.6,19.4c-0.4,0-0.7-0.2-0.9-0.6L0.1,1.4c-0.2-0.5,0-1.1,0.5-1.3c0.5-0.2,1.1,0,1.3,0.5l8.6,17.4
			c0.2,0.5,0,1.1-0.5,1.3C9.9,19.3,9.7,19.4,9.6,19.4z"/>
	</g>
</g>
</svg>
