<?xml version="1.0" encoding="utf-8"?>
<!-- Generator: Adobe Illustrator 19.2.1, SVG Export Plug-In . SVG Version: 6.00 Build 0)  -->
<svg version="1.1" id="Layer_1" xmlns="http://www.w3.org/2000/svg" xmlns:xlink="http://www.w3.org/1999/xlink" x="0px" y="0px"
	 viewBox="0 0 26 36" style="enable-background:new 0 0 26 36;" xml:space="preserve">
<style type="text/css">
	.st0{fill:none;}
	.st1{fill:#FFFFFF;}
</style>
<g>
	<g>
		<rect x="1" y="1" class="st0" width="24" height="34"/>
	</g>
	<g>
		<path class="st1" d="M25,36H1c-0.6,0-1-0.4-1-1V11c0-0.6,0.4-1,1-1h24c0.6,0,1,0.4,1,1v24C26,35.6,25.6,36,25,36z M2,34h22V12H2
			V34z"/>
	</g>
	<g>
		<rect x="1" y="18" class="st1" width="24" height="2"/>
	</g>
	<g>
		<rect x="1" y="26" class="st1" width="24" height="2"/>
	</g>
	<g>
		<rect x="12" y="10.3" class="st1" width="2" height="24.7"/>
	</g>
	<g>
		<rect x="12" class="st1" width="2" height="7.2"/>
	</g>
	<g>
		<rect class="st1" width="2" height="7.2"/>
	</g>
	<g>
		<rect x="24" class="st1" width="2" height="7.2"/>
	</g>
	<g>
		<polygon class="st1" points="13,19 25,11 25,19 		"/>
	</g>
	<g>
		<polygon class="st1" points="1,19 13,11 13,19 		"/>
	</g>
</g>
</svg>
