<?xml version="1.0" encoding="utf-8"?>
<!-- Generator: Adobe Illustrator 19.0.1, SVG Export Plug-In . SVG Version: 6.00 Build 0)  -->
<svg version="1.1" id="Layer_1" xmlns="http://www.w3.org/2000/svg" xmlns:xlink="http://www.w3.org/1999/xlink" x="0px" y="0px"
	 viewBox="-946 523 26 36" style="enable-background:new -946 523 26 36;" xml:space="preserve">
<style type="text/css">
	.st0{fill:#FFFFFF;}
</style>
<g>
	<g>
		<path class="st0" d="M10.2,1064.1c-3.7,0-6.7-3-6.7-6.7c0-3.7,3-6.7,6.7-6.7s6.7,3,6.7,6.7C16.9,1061.1,13.9,1064.1,10.2,1064.1z
			 M10.2,1052.7c-2.6,0-4.7,2.1-4.7,4.7s2.1,4.7,4.7,4.7s4.7-2.1,4.7-4.7S12.8,1052.7,10.2,1052.7z"/>
	</g>
	<g>
		<path class="st0" d="M26.2,1081.1h-24c-0.6,0-1-0.4-1-1v-11.3c0-0.6,0.4-1,1-1h24c0.6,0,1,0.4,1,1v11.3
			C27.2,1080.7,26.8,1081.1,26.2,1081.1z M3.2,1079.1h22v-9.3h-22V1079.1z"/>
	</g>
	<g>
		<path class="st0" d="M7,1053.8c-0.3,0-0.6-0.1-0.8-0.4l-4.8-6.7c-0.3-0.4-0.2-1.1,0.2-1.4c0.4-0.3,1.1-0.2,1.4,0.2l4.8,6.7
			c0.3,0.4,0.2,1.1-0.2,1.4C7.4,1053.7,7.2,1053.8,7,1053.8z"/>
	</g>
	<g>
		<path class="st0" d="M18.2,1069.8c-0.3,0-0.6-0.1-0.8-0.4l-4.7-6.7c-0.3-0.5-0.2-1.1,0.2-1.4s1.1-0.2,1.4,0.2l4.7,6.7
			c0.3,0.5,0.2,1.1-0.2,1.4C18.6,1069.7,18.4,1069.8,18.2,1069.8z"/>
	</g>
	<g>
		<path class="st0" d="M2.2,1064.1c-0.3,0-0.6-0.1-0.8-0.4c-0.3-0.5-0.2-1.1,0.2-1.4l3.4-2.4c0.5-0.3,1.1-0.2,1.4,0.2
			c0.3,0.5,0.2,1.1-0.2,1.4l-3.4,2.4C2.6,1064,2.4,1064.1,2.2,1064.1z"/>
	</g>
	<g>
		<path class="st0" d="M15,1055.1c-0.3,0-0.6-0.1-0.8-0.4c-0.3-0.4-0.2-1.1,0.2-1.4l11.2-8c0.4-0.3,1.1-0.2,1.4,0.2
			c0.3,0.4,0.2,1.1-0.2,1.4l-11.2,8C15.4,1055,15.2,1055.1,15,1055.1z"/>
	</g>
	<g>
		<path class="st0" d="M10.2,1058.4c-0.6,0-1-0.4-1-1s0.4-1,1-1l0,0c0.6,0,1,0.4,1,1S10.8,1058.4,10.2,1058.4z"/>
	</g>
</g>
<g>
	<g>
		<g>
			<path class="st0" d="M-935.9,534c-1.9,0-3.5-1.6-3.5-3.5s1.6-3.5,3.5-3.5c1.9,0,3.5,1.6,3.5,3.5S-934,534-935.9,534z M-935.9,529
				c-0.8,0-1.5,0.7-1.5,1.5c0,0.8,0.7,1.5,1.5,1.5c0.8,0,1.5-0.7,1.5-1.5C-934.4,529.7-935.1,529-935.9,529z"/>
		</g>
	</g>
	<g>
		<g>
			<path class="st0" d="M-925.4,533c-0.2,0-0.3,0-0.5-0.1c-0.5-0.3-0.7-0.9-0.4-1.4l4.4-8c0.3-0.5,0.9-0.7,1.4-0.4s0.7,0.9,0.4,1.4
				l-4.4,8C-924.7,532.8-925,533-925.4,533z"/>
		</g>
	</g>
	<g>
		<path class="st0" d="M-921,559c-0.4,0-0.7-0.2-0.9-0.5l-7.7-14.1c-0.3-0.5-0.1-1.1,0.4-1.4c0.5-0.3,1.1-0.1,1.4,0.4l7.7,14.1
			c0.3,0.5,0.1,1.1-0.4,1.4C-920.7,559-920.8,559-921,559z"/>
	</g>
	<g>
		<path class="st0" d="M-939.3,559c-0.1,0-0.2,0-0.3,0c-0.5-0.2-0.8-0.7-0.7-1.2l3.9-13.3c0.2-0.5,0.7-0.8,1.2-0.7
			c0.5,0.2,0.8,0.7,0.7,1.2l-3.9,13.3C-938.5,558.7-938.9,559-939.3,559z"/>
	</g>
	<g>
		<path class="st0" d="M-945,554.9c-0.2,0-0.4-0.1-0.6-0.2c-0.5-0.3-0.6-0.9-0.3-1.4l5.3-7.9c0.3-0.5,0.9-0.6,1.4-0.3
			c0.5,0.3,0.6,0.9,0.3,1.4l-5.3,7.9C-944.4,554.7-944.7,554.9-945,554.9z"/>
	</g>
	<g>
		<path class="st0" d="M-922,536c0,4.5-2.7,8.3-6.5,10.1l1,1.8c4.5-2.1,7.6-6.6,7.6-11.8c0-1.9-0.4-3.7-1.2-5.4l-1.3,2.3
			C-922.2,533.9-922,534.9-922,536z"/>
	</g>
	<g>
		<g>
			<path class="st0" d="M-939.1,545.1c-2.9-2-4.9-5.3-4.9-9.1c0-6.1,4.9-11,11-11c4.1,0,7.7,2.3,9.6,5.6l1.1-2
				c-2.4-3.4-6.3-5.6-10.7-5.6c-7.2,0-13,5.8-13,13c0,4.5,2.3,8.5,5.8,10.8"/>
		</g>
		<g>
			<path class="st0" d="M-933,547c-1.4,0-2.7-0.3-3.9-0.7l-0.6,1.9c1.4,0.5,2.9,0.8,4.4,0.8c1.2,0,2.4-0.2,3.5-0.5l-1-1.8
				C-931.3,546.9-932.1,547-933,547z"/>
		</g>
	</g>
</g>
</svg>
