<?xml version="1.0" encoding="utf-8"?>
<!-- Generator: Adobe Illustrator 19.2.1, SVG Export Plug-In . SVG Version: 6.00 Build 0)  -->
<svg version="1.1" id="Layer_1" xmlns="http://www.w3.org/2000/svg" xmlns:xlink="http://www.w3.org/1999/xlink" x="0px" y="0px"
	 viewBox="0 0 26 36" style="enable-background:new 0 0 26 36;" xml:space="preserve">
<style type="text/css">
	.st0{fill:#FFFFFF;}
	.st1{fill:none;}
</style>
<g>
	<g>
		<path class="st0" d="M972.2,558.1h-24c-0.6,0-1-0.4-1-1v-34c0-0.6,0.4-1,1-1h24c0.6,0,1,0.4,1,1v34
			C973.2,557.7,972.8,558.1,972.2,558.1z M949.2,556.1h22v-32h-22V556.1z"/>
	</g>
</g>
<g>
	<g>
		<rect x="1" y="1" class="st1" width="24" height="34"/>
	</g>
	<g>
		<path class="st0" d="M13,18.4c-3.5,0-6.3-2.8-6.3-6.3c0-3.5,2.8-6.3,6.3-6.3c3.5,0,6.3,2.8,6.3,6.3C19.3,15.6,16.5,18.4,13,18.4z
			 M13,7.9c-2.4,0-4.3,1.9-4.3,4.3s1.9,4.3,4.3,4.3c2.4,0,4.3-1.9,4.3-4.3S15.4,7.9,13,7.9z"/>
	</g>
	<g>
		<circle class="st0" cx="13" cy="27" r="1"/>
	</g>
	<g>
		<path class="st0" d="M21.4,36c-0.6,0-1-0.4-1-1V1c0-0.6,0.4-1,1-1s1,0.4,1,1v34C22.4,35.6,22,36,21.4,36z"/>
	</g>
	<g>
		<path class="st0" d="M25,36c-0.6,0-1-0.4-1-1V1c0-0.6,0.4-1,1-1s1,0.4,1,1v34C26,35.6,25.6,36,25,36z"/>
	</g>
	<g>
		<path class="st0" d="M4.6,36c-0.6,0-1-0.4-1-1V1c0-0.6,0.4-1,1-1s1,0.4,1,1v34C5.6,35.6,5.1,36,4.6,36z"/>
	</g>
	<g>
		<path class="st0" d="M1,36c-0.6,0-1-0.4-1-1V1c0-0.6,0.4-1,1-1s1,0.4,1,1v34C2,35.6,1.6,36,1,36z"/>
	</g>
</g>
</svg>
