<?xml version="1.0" encoding="utf-8"?>
<!-- Generator: Adobe Illustrator 19.2.1, SVG Export Plug-In . SVG Version: 6.00 Build 0)  -->
<svg version="1.1" id="Layer_1" xmlns="http://www.w3.org/2000/svg" xmlns:xlink="http://www.w3.org/1999/xlink" x="0px" y="0px"
	 viewBox="0 0 26 36" style="enable-background:new 0 0 26 36;" xml:space="preserve">
<style type="text/css">
	.st0{fill:#FFFFFF;}
	.st1{fill:none;}
</style>
<g>
	<g>
		<path class="st0" d="M972.2,558.1h-24c-0.6,0-1-0.4-1-1v-34c0-0.6,0.4-1,1-1h24c0.6,0,1,0.4,1,1v34
			C973.2,557.7,972.8,558.1,972.2,558.1z M949.2,556.1h22v-32h-22V556.1z"/>
	</g>
</g>
<g>
	<g>
		<rect x="1" y="1" class="st1" width="24" height="34"/>
	</g>
	<g>
		<path class="st0" d="M25,26H1c-0.6,0-1-0.4-1-1V1c0-0.6,0.4-1,1-1h24c0.6,0,1,0.4,1,1v24C26,25.6,25.6,26,25,26z M2,24h22V2H2V24z
			"/>
	</g>
	<g>
		<path class="st0" d="M19.6,20.6H6.4c-0.6,0-1-0.4-1-1V6.4c0-0.6,0.4-1,1-1h13.2c0.6,0,1,0.4,1,1v13.2
			C20.6,20.1,20.1,20.6,19.6,20.6z M7.4,18.6h11.2V7.4H7.4V18.6z"/>
	</g>
	<g>
		<path class="st0" d="M12.5,14.6h0.9c0.7,0,1.2-0.5,1.2-1.2v-0.9c0-0.7-0.5-1.2-1.2-1.2h-0.9c-0.7,0-1.2,0.5-1.2,1.2v0.9
			C11.4,14.1,11.9,14.6,12.5,14.6z"/>
	</g>
	<g>
		<path class="st0" d="M1,36c-0.6,0-1-0.4-1-1v-5.3c0-0.6,0.4-1,1-1s1,0.4,1,1V35C2,35.6,1.6,36,1,36z"/>
	</g>
	<g>
		<path class="st0" d="M17,36c-0.6,0-1-0.4-1-1v-0.3c0-0.6,0.4-1,1-1s1,0.4,1,1V35C18,35.6,17.6,36,17,36z"/>
	</g>
	<g>
		<path class="st0" d="M9,36c-0.6,0-1-0.4-1-1v-0.3c0-0.6,0.4-1,1-1s1,0.4,1,1V35C10,35.6,9.6,36,9,36z"/>
	</g>
	<g>
		<path class="st0" d="M25,36c-0.6,0-1-0.4-1-1v-0.3c0-0.6,0.4-1,1-1s1,0.4,1,1V35C26,35.6,25.6,36,25,36z"/>
	</g>
</g>
</svg>
