<?xml version="1.0" encoding="utf-8"?>
<!-- Generator: Adobe Illustrator 19.2.1, SVG Export Plug-In . SVG Version: 6.00 Build 0)  -->
<svg version="1.1" id="Layer_1" xmlns="http://www.w3.org/2000/svg" xmlns:xlink="http://www.w3.org/1999/xlink" x="0px" y="0px"
	 viewBox="0 0 26 36" style="enable-background:new 0 0 26 36;" xml:space="preserve">
<style type="text/css">
	.st0{fill:#FFFFFF;}
	.st1{fill:none;}
</style>
<g>
	<g>
		<path class="st0" d="M972.2,558.1h-24c-0.6,0-1-0.4-1-1v-34c0-0.6,0.4-1,1-1h24c0.6,0,1,0.4,1,1v34
			C973.2,557.7,972.8,558.1,972.2,558.1z M949.2,556.1h22v-32h-22V556.1z"/>
	</g>
</g>
<g>
	<g>
		<rect x="1" y="1" class="st1" width="24" height="34"/>
	</g>
	<g>
		<path class="st0" d="M11.7,23.3C5.2,23.3,0,18.1,0,11.7C0,5.2,5.2,0,11.7,0s11.7,5.2,11.7,11.7C23.3,18.1,18.1,23.3,11.7,23.3z
			 M11.7,2C6.3,2,2,6.3,2,11.7c0,5.3,4.3,9.7,9.7,9.7c5.3,0,9.7-4.3,9.7-9.7C21.3,6.3,17,2,11.7,2z"/>
	</g>
	<g>
		<path class="st0" d="M25,36c-0.2,0-0.4-0.1-0.6-0.2L4.7,21c-0.4-0.3-0.5-1-0.2-1.4c0.3-0.4,1-0.5,1.4-0.2l19.7,14.8
			c0.4,0.3,0.5,1,0.2,1.4C25.6,35.9,25.3,36,25,36z"/>
	</g>
	<g>
		<path class="st0" d="M20.4,28.2c-0.2,0-0.4-0.1-0.6-0.2l-3.3-2.5c-0.4-0.3-0.5-1-0.2-1.4c0.3-0.4,1-0.5,1.4-0.2l3.3,2.5
			c0.4,0.3,0.5,1,0.2,1.4C21,28.1,20.7,28.2,20.4,28.2z"/>
	</g>
	<g>
		<path class="st0" d="M25,36c-0.5,0-0.9-0.4-1-0.9l-2.7-24.5c-0.1-0.5,0.3-1,0.9-1.1c0.5-0.1,1,0.3,1.1,0.9L26,34.9
			c0.1,0.5-0.3,1-0.9,1.1C25.1,36,25,36,25,36z"/>
	</g>
	<g>
		<path class="st0" d="M20.4,28.1c-0.5,0-0.9-0.4-1-0.9l-0.5-4c-0.1-0.5,0.3-1,0.9-1.1c0.6-0.1,1,0.3,1.1,0.9l0.5,4
			c0.1,0.5-0.3,1-0.9,1.1C20.4,28.1,20.4,28.1,20.4,28.1z"/>
	</g>
</g>
</svg>
