<?xml version="1.0" encoding="utf-8"?>
<!-- Generator: Adobe Illustrator 19.0.1, SVG Export Plug-In . SVG Version: 6.00 Build 0)  -->
<svg version="1.1" id="Layer_1" xmlns="http://www.w3.org/2000/svg" xmlns:xlink="http://www.w3.org/1999/xlink" x="0px" y="0px"
	 viewBox="-941 522.3 36.7 36.7" style="enable-background:new -941 522.3 36.7 36.7;" xml:space="preserve">
<style type="text/css">
	.st0{fill:#FFFFFF;}
</style>
<g>
	<path class="st0" d="M-915.5,523.5v6.2c3.4,2.3,5.6,6.2,5.6,10.6s-2.2,8.3-5.6,10.6v6.2c6.5-2.8,11.1-9.3,11.1-16.8
		S-909,526.2-915.5,523.5z"/>
	<g>
		<rect x="-925.7" y="534" class="st0" width="6" height="24.5"/>
	</g>
	<rect x="-925.7" y="522.8" class="st0" width="6" height="6"/>
	<path class="st0" d="M-935.4,540.3c0-4.4,2.2-8.3,5.6-10.6v-6.2c-6.5,2.8-11.1,9.3-11.1,16.8s4.6,14,11.1,16.8v-6.2
		C-933.2,548.6-935.4,544.7-935.4,540.3z"/>
</g>
</svg>
