<?xml version="1.0" encoding="utf-8"?>
<!-- Generator: Adobe Illustrator 19.0.1, SVG Export Plug-In . SVG Version: 6.00 Build 0)  -->
<svg version="1.1" id="Layer_1" xmlns="http://www.w3.org/2000/svg" xmlns:xlink="http://www.w3.org/1999/xlink" x="0px" y="0px"
	 viewBox="0 0 929.5 353.4" style="enable-background:new 0 0 929.5 353.4;" xml:space="preserve">
<style type="text/css">
	.st0{opacity:0.5;fill:url(#SVGID_1_);}
	.st1{fill:#FF3E3E;}
	.st2{fill:#FFFFFF;}
	.st3{opacity:0.5;fill:url(#SVGID_2_);}
	.st4{fill:none;}
</style>
<g>
	<linearGradient id="SVGID_1_" gradientUnits="userSpaceOnUse" x1="88.6692" y1="89.3005" x2="317.3313" y2="317.9626">
		<stop  offset="0" style="stop-color:#160808"/>
		<stop  offset="0.7749" style="stop-color:#160808;stop-opacity:0"/>
	</linearGradient>
	<polygon class="st0" points="271.6,353.4 357.9,277.4 129.3,48.7 48.1,129.9 	"/>
	<circle class="st1" cx="89.3" cy="89.3" r="57.4"/>
	<g>
		<path class="st2" d="M156.3,143.7c0,3.9-0.7,7.6-2.1,11.2c-1.4,3.6-3.7,6.8-7,9.5c-3.2,2.8-7.4,5-12.5,6.6
			c-5.1,1.6-11.4,2.4-18.7,2.4c-5.6,0-10.8-0.6-15.8-1.9c-5-1.3-9.4-3.1-13.1-5.6c-3.7-2.4-6.7-5.4-9-9c-2.2-3.5-3.3-7.6-3.3-12.1
			h25.9c0.3,2,1,3.6,2.2,4.8c1.2,1.2,2.5,2.2,4.1,2.9c1.5,0.7,3.1,1.2,4.7,1.5c1.6,0.2,2.9,0.4,4.1,0.4c1.5,0,2.9-0.1,4.3-0.3
			c1.4-0.2,2.6-0.5,3.6-0.9c1-0.4,1.9-0.9,2.5-1.5c0.6-0.6,0.9-1.3,0.9-2.1c0-1.3-0.7-2.4-2.2-3.2c-1.5-0.8-3.4-1.5-5.8-2.1
			c-2.4-0.6-5.1-1.2-8.2-1.8c-3.1-0.6-6.2-1.3-9.3-2.1c-3.2-0.8-6.3-1.9-9.3-3.1c-3.1-1.2-5.8-2.9-8.2-4.8c-2.4-2-4.3-4.4-5.8-7.3
			c-1.5-2.9-2.2-6.3-2.2-10.4c0-3.5,0.8-7,2.5-10.5c1.7-3.4,4.1-6.5,7.4-9.3c3.3-2.7,7.4-5,12.3-6.7c4.9-1.7,10.6-2.6,17-2.6
			c5.4,0,10.4,0.7,15,2c4.6,1.4,8.6,3.2,12,5.6c3.4,2.4,6,5.2,7.9,8.5c1.9,3.3,2.8,6.9,2.8,10.7h-25c-0.3-1.9-0.9-3.6-1.8-4.8
			c-0.9-1.3-2-2.3-3.2-3c-1.2-0.7-2.5-1.2-3.9-1.5c-1.3-0.3-2.5-0.4-3.6-0.4c-3,0-5.4,0.4-7.3,1.2c-1.9,0.8-2.9,2-2.9,3.6
			c0,1,0.4,1.8,1.1,2.6c0.7,0.7,1.8,1.4,3.1,1.9c1.3,0.6,2.9,1.1,4.6,1.5c1.8,0.5,3.7,0.9,5.7,1.3c2.5,0.6,5.1,1.2,7.9,1.9
			c2.8,0.7,5.5,1.5,8.2,2.6c2.7,1,5.3,2.2,7.8,3.6c2.5,1.4,4.6,3.1,6.5,5c1.9,1.9,3.4,4.2,4.5,6.7
			C155.8,137.5,156.3,140.4,156.3,143.7z"/>
		<path class="st2" d="M249.4,114.9c0,3.7-0.8,7.3-2.3,10.5c-1.5,3.3-3.7,6.1-6.5,8.5c-2.8,2.4-6.2,4.4-10.2,5.8
			c-4,1.4-8.5,2.1-13.4,2.1h-20.5v29.5h-32.9V88.1h53.4c4.9,0,9.4,0.7,13.4,2.1c4,1.4,7.4,3.4,10.2,5.8c2.8,2.4,5,5.3,6.5,8.5
			C248.7,107.8,249.4,111.2,249.4,114.9z M214.6,118.8c0-1.4-0.5-2.7-1.6-3.8c-1-1.1-2.3-1.7-3.9-1.7h-12.6v11h12.6
			c1.5,0,2.8-0.6,3.9-1.8C214,121.3,214.6,120.1,214.6,118.8z"/>
		<path class="st2" d="M296.7,171.4l-3.5-10.8h-26.7l-3.5,10.8h-27.4l30.9-83.3h33l31.3,83.3H296.7z M279.5,120.3l-7.1,22.1H287
			L279.5,120.3z"/>
		<path class="st2" d="M408.4,136.9c-0.6,5.2-1.9,10-4.1,14.5c-2.2,4.4-4.9,8.3-8.3,11.6c-3.4,3.3-7.4,5.9-11.9,7.7
			c-4.5,1.8-9.5,2.8-14.8,2.8c-6,0-11.6-1.1-16.8-3.4c-5.2-2.3-9.8-5.4-13.7-9.4c-3.9-4-7-8.6-9.2-13.9c-2.3-5.3-3.4-11-3.4-17
			s1.1-11.7,3.4-17c2.3-5.3,5.3-9.9,9.2-13.9c3.9-4,8.5-7.1,13.7-9.4c5.2-2.3,10.8-3.4,16.8-3.4c5.4,0,10.4,0.9,14.9,2.8
			c4.5,1.9,8.5,4.5,11.9,7.8c3.4,3.3,6.2,7.2,8.3,11.7c2.2,4.5,3.5,9.4,4.1,14.6h-27.1c-0.3-2-0.8-3.7-1.5-5.2
			c-0.7-1.4-1.6-2.6-2.7-3.5c-1-0.9-2.1-1.6-3.3-2c-1.1-0.4-2.3-0.6-3.4-0.6c-1.4,0-2.8,0.3-4.1,1c-1.4,0.7-2.6,1.8-3.6,3.2
			c-1,1.5-1.9,3.3-2.6,5.6c-0.7,2.3-1,5-1,8.2c0,3.3,0.3,6,1,8.3c0.7,2.3,1.5,4.2,2.6,5.6c1,1.5,2.2,2.5,3.6,3.2
			c1.4,0.7,2.7,1,4.1,1c1,0,2.2-0.2,3.3-0.6c1.2-0.4,2.3-1.1,3.3-1.9c1-0.9,1.9-2,2.6-3.4c0.7-1.4,1.2-3.1,1.5-5H408.4z"/>
		<path class="st2" d="M415.3,171.4V88.1h75.3v25.2h-42.4v8.5h20.6v15.9h-20.6v8.4h42.4v25.2H415.3z"/>
		<path class="st2" d="M583.3,114.9c0,3.7-0.8,7.3-2.3,10.5c-1.5,3.3-3.7,6.1-6.5,8.5c-2.8,2.4-6.2,4.4-10.2,5.8
			c-4,1.4-8.5,2.1-13.4,2.1h-20.5v29.5h-32.9V88.1h53.4c4.9,0,9.4,0.7,13.4,2.1c4,1.4,7.4,3.4,10.2,5.8c2.8,2.4,5,5.3,6.5,8.5
			C582.5,107.8,583.3,111.2,583.3,114.9z M548.4,118.8c0-1.4-0.5-2.7-1.6-3.8s-2.3-1.7-3.9-1.7h-12.6v11H543c1.5,0,2.8-0.6,3.9-1.8
			C547.9,121.3,548.4,120.1,548.4,118.8z"/>
		<path class="st2" d="M589.8,171.4V88.1h32.9v58.1h40v25.2H589.8z"/>
		<path class="st2" d="M729,171.4l-3.5-10.8h-26.7l-3.5,10.8h-27.4l30.9-83.3h33l31.3,83.3H729z M711.8,120.3l-7.1,22.1h14.6
			L711.8,120.3z"/>
		<path class="st2" d="M826.8,171.4l-29.3-36.5v36.5h-28V88.1h29.3l28,36.2V88.1h28v83.3H826.8z"/>
	</g>
	<g>
		<linearGradient id="SVGID_2_" gradientUnits="userSpaceOnUse" x1="1.7308" y1="1.7382" x2="243.3427" y2="243.35">
			<stop  offset="0" style="stop-color:#160808"/>
			<stop  offset="0.7749" style="stop-color:#160808;stop-opacity:0"/>
		</linearGradient>
		<polygon class="st3" points="241.6,245.1 241.6,238.2 3.5,0 0,3.5 		"/>
		<rect x="0" y="0" class="st2" width="3.5" height="3.5"/>
	</g>
</g>
<line class="st4" x1="357.9" y1="277.4" x2="62.8" y2="277.4"/>
</svg>
