<?xml version="1.0" encoding="utf-8"?>
<!-- Generator: Adobe Illustrator 19.0.1, SVG Export Plug-In . SVG Version: 6.00 Build 0)  -->
<svg version="1.1" id="Layer_1" xmlns="http://www.w3.org/2000/svg" xmlns:xlink="http://www.w3.org/1999/xlink" x="0px" y="0px"
	 viewBox="0 0 36.7 36.7" style="enable-background:new 0 0 36.7 36.7;" xml:space="preserve">
<style type="text/css">
	.st0{fill:#FFFFFF;}
	.st1{fill:#1A1A1A;}
</style>
<g>
	<path class="st0" d="M36.7,18.4c0-1.2-0.1-2.4-0.3-3.5h-3.9C31.1,9.7,27,5.6,21.9,4.3V0.3C20.7,0.1,19.5,0,18.4,0S16,0.1,14.9,0.3
		v3.9C9.7,5.6,5.6,9.7,4.3,14.9H0.3C0.1,16,0,17.2,0,18.4s0.1,2.4,0.3,3.5h3.9c1.3,5.2,5.4,9.3,10.6,10.6v3.9
		c1.1,0.2,2.3,0.3,3.5,0.3s2.4-0.1,3.5-0.3v-3.9c5.2-1.3,9.3-5.4,10.6-10.6h3.9C36.6,20.7,36.7,19.5,36.7,18.4z"/>
	<circle class="st1" cx="18.4" cy="18.4" r="8.9"/>
</g>
</svg>
