<?xml version="1.0" encoding="utf-8"?>
<!-- Generator: Adobe Illustrator 19.2.1, SVG Export Plug-In . SVG Version: 6.00 Build 0)  -->
<svg version="1.1" id="Layer_1" xmlns="http://www.w3.org/2000/svg" xmlns:xlink="http://www.w3.org/1999/xlink" x="0px" y="0px"
	 viewBox="0 0 759.4 87" style="enable-background:new 0 0 759.4 87;" xml:space="preserve">
<style type="text/css">
	.st0{fill:#FFFFFF;}
</style>
<g>
	<path class="st0" d="M81.2,57.4c0,3.9-0.7,7.6-2.1,11.1c-1.4,3.6-3.7,6.7-6.9,9.5c-3.2,2.8-7.4,5-12.5,6.6C54.5,86.2,48.3,87,41,87
		c-5.5,0-10.8-0.6-15.7-1.9c-5-1.3-9.3-3.1-13-5.5s-6.7-5.4-8.9-8.9C1.1,67.1,0,63.1,0,58.6h25.8c0.3,2,1,3.6,2.2,4.8s2.5,2.2,4,2.9
		s3.1,1.2,4.7,1.5c1.6,0.2,2.9,0.4,4,0.4c1.4,0,2.9-0.1,4.2-0.3c1.4-0.2,2.6-0.5,3.6-0.9s1.9-0.9,2.5-1.5s0.9-1.3,0.9-2.1
		c0-1.3-0.7-2.4-2.2-3.2s-3.4-1.5-5.7-2.1c-2.4-0.6-5.1-1.2-8.1-1.8s-6.1-1.3-9.3-2.1c-3.1-0.8-6.2-1.9-9.3-3.1
		c-3-1.2-5.7-2.8-8.1-4.8s-4.3-4.4-5.7-7.2C2,36.2,1.3,32.8,1.3,28.8c0-3.5,0.8-7,2.5-10.4s4.1-6.5,7.4-9.2s7.4-4.9,12.2-6.6
		C28.3,0.8,34,0,40.4,0c5.4,0,10.4,0.7,15,2S64,5.2,67.3,7.6s6,5.2,7.8,8.5c1.9,3.3,2.8,6.8,2.8,10.6H53c-0.3-1.9-0.9-3.5-1.8-4.8
		c-0.9-1.3-2-2.3-3.2-3s-2.5-1.2-3.8-1.4c-1.3-0.3-2.5-0.4-3.6-0.4c-3,0-5.4,0.4-7.3,1.2c-1.9,0.8-2.8,2-2.8,3.6
		c0,1,0.4,1.8,1.1,2.5c0.7,0.7,1.7,1.4,3.1,1.9c1.3,0.6,2.8,1.1,4.6,1.5s3.6,0.9,5.6,1.3c2.5,0.6,5.1,1.2,7.9,1.9
		c2.8,0.7,5.5,1.5,8.2,2.5s5.3,2.2,7.7,3.6c2.5,1.4,4.6,3,6.5,5c1.9,1.9,3.3,4.2,4.5,6.7C80.6,51.2,81.2,54.1,81.2,57.4z"/>
	<path class="st0" d="M171.7,28.8c0,3.7-0.8,7.2-2.3,10.5c-1.5,3.2-3.7,6.1-6.5,8.5s-6.2,4.3-10.1,5.7c-4,1.4-8.4,2.1-13.3,2.1
		h-20.4v29.3H86.4V2.1h53.1c4.9,0,9.3,0.7,13.3,2.1s7.4,3.3,10.1,5.7c2.8,2.4,5,5.2,6.5,8.5C171,21.7,171.7,25.1,171.7,28.8z
		 M137,32.6c0-1.4-0.5-2.6-1.6-3.8c-1-1.1-2.3-1.7-3.8-1.7h-12.5v11h12.5c1.5,0,2.8-0.6,3.8-1.8C136.5,35.2,137,33.9,137,32.6z"/>
	<path class="st0" d="M216.7,84.9l-3.5-10.8h-26.5l-3.5,10.8H156L186.8,2h32.8l31.2,82.9H216.7z M199.6,34.2l-7,22H207L199.6,34.2z"
		/>
	<path class="st0" d="M325.7,50.6c-0.6,5.2-1.9,10-4,14.4s-4.9,8.3-8.3,11.5c-3.4,3.3-7.3,5.8-11.9,7.7c-4.5,1.8-9.4,2.7-14.8,2.7
		c-5.9,0-11.5-1.1-16.7-3.4s-9.8-5.4-13.6-9.3c-3.9-3.9-6.9-8.5-9.2-13.8c-2.2-5.3-3.4-10.9-3.4-16.9s1.1-11.7,3.4-16.9
		c2.2-5.3,5.3-9.9,9.2-13.8s8.4-7,13.6-9.3s10.8-3.4,16.7-3.4c5.4,0,10.3,0.9,14.8,2.8s8.4,4.4,11.8,7.7s6.1,7.2,8.3,11.7
		c2.1,4.5,3.5,9.3,4,14.5h-26.9c-0.3-2-0.8-3.7-1.5-5.1s-1.6-2.6-2.6-3.5s-2.1-1.6-3.3-2c-1.1-0.4-2.3-0.6-3.4-0.6
		c-1.4,0-2.7,0.3-4.1,1c-1.3,0.7-2.5,1.8-3.6,3.2c-1,1.5-1.9,3.3-2.5,5.6c-0.7,2.3-1,5-1,8.2s0.3,6,1,8.3s1.5,4.1,2.5,5.6
		s2.2,2.5,3.6,3.2s2.7,1,4.1,1c1,0,2.1-0.2,3.3-0.6c1.2-0.4,2.3-1.1,3.3-1.9c1-0.9,1.9-2,2.6-3.4s1.2-3,1.5-5h27.1V50.6z"/>
	<path class="st0" d="M330.5,84.9V2.1h74.9v25.1h-42.2v8.5h20.5v15.8h-20.5v8.4h42.2V85L330.5,84.9L330.5,84.9z"/>
	<path class="st0" d="M495.5,28.8c0,3.7-0.8,7.2-2.3,10.5c-1.5,3.2-3.7,6.1-6.5,8.5s-6.2,4.3-10.1,5.7c-4,1.4-8.4,2.1-13.3,2.1
		h-20.4v29.3h-32.7V2.1h53.1c4.9,0,9.3,0.7,13.3,2.1s7.4,3.3,10.1,5.7c2.8,2.4,5,5.2,6.5,8.5S495.5,25.1,495.5,28.8z M460.8,32.6
		c0-1.4-0.5-2.6-1.6-3.8c-1-1.1-2.3-1.7-3.8-1.7h-12.5v11h12.5c1.5,0,2.8-0.6,3.8-1.8C460.2,35.2,460.8,33.9,460.8,32.6z"/>
	<path class="st0" d="M499.9,84.9V2.1h32.7v57.8h39.8V85L499.9,84.9L499.9,84.9z"/>
	<path class="st0" d="M636.3,84.9l-3.5-10.8h-26.5l-3.5,10.8h-27.2L606.4,2h32.8l31.2,82.9H636.3z M619.2,34.2l-7,22h14.5
		L619.2,34.2z"/>
	<path class="st0" d="M731.5,84.9l-29.1-36.4v36.4h-27.9V2.1h29.1l27.9,36v-36h27.9V85L731.5,84.9L731.5,84.9z"/>
</g>
</svg>
